/* XPM */
static char *ee3053b5fcae4868dce1f3e2c84dcda8jmsFc9lBX5VlHiBp[] = {
/* columns rows colors chars-per-pixel */
"50 26 174 2 ",
"   c None",
".  c #E69F0B",
"X  c #EB9B0A",
"o  c #EC9C0A",
"O  c #EC9D0B",
"+  c #EA9C0C",
"@  c #E5A00C",
"#  c #E8A108",
"$  c #EAA108",
"%  c #E8A30A",
"&  c #E9A40B",
"*  c #E9A50C",
"=  c #EFAC09",
"-  c #EEAC0A",
";  c #EFAA0D",
":  c #F1AE0B",
">  c #F0AD0C",
",  c #F3AF0C",
"<  c #F4AF0D",
"1  c #F5B907",
"2  c #F6BA07",
"3  c #F1B00A",
"4  c #F0B00B",
"5  c #F3B709",
"6  c #F4B708",
"7  c #F5B20C",
"8  c #F7B20D",
"9  c #F6B30D",
"0  c #F7B30D",
"q  c #F6B40C",
"w  c #F6B40D",
"e  c #F4B70E",
"r  c #F6B90D",
"t  c #F7B80E",
"y  c #F7B80F",
"u  c #F5BE0F",
"i  c #F8B909",
"p  c #F8B90A",
"a  c #FABC0B",
"s  c #FBBC0B",
"d  c #F8BA0D",
"f  c #F8B90F",
"g  c #FBBD0E",
"h  c #FBBC0F",
"j  c #F4BB11",
"k  c #F6BE10",
"l  c #FDBF11",
"z  c #F7BD1C",
"x  c #F7BD1E",
"c  c #FDC603",
"v  c #FDC703",
"b  c #FEC703",
"n  c #FBC104",
"m  c #FBC204",
"M  c #FBC205",
"N  c #FCC205",
"B  c #FDC205",
"V  c #FCC206",
"C  c #FDC206",
"Z  c #FBC507",
"A  c #FDC903",
"S  c #FEC803",
"D  c #FDCA02",
"F  c #FECA02",
"G  c #FECB02",
"H  c #FFCB02",
"J  c #FECE01",
"K  c #FECF01",
"L  c #FFCF01",
"P  c #FECE02",
"I  c #FECF02",
"U  c #FFCF02",
"Y  c #FDCC04",
"T  c #FBC508",
"R  c #FED001",
"E  c #FFD001",
"W  c #FED101",
"Q  c #FFD101",
"!  c #FED002",
"~  c #FFD002",
"^  c #FFD102",
"/  c #FFD202",
"(  c #FFD302",
")  c #FFD401",
"_  c #FED501",
"`  c #FFD601",
"'  c #FFD701",
"]  c #FFD402",
"[  c #FFD502",
"{  c #FFD403",
"}  c #FFD602",
"|  c #FFD702",
" . c #FFD801",
".. c #FFD901",
"X. c #FFD802",
"o. c #FED902",
"O. c #FFD902",
"+. c #FFD803",
"@. c #FED903",
"#. c #FEDA02",
"$. c #FEDA03",
"%. c #FFDA03",
"&. c #FFD807",
"*. c #FFD907",
"=. c #FFD808",
"-. c #FFD908",
";. c #FEDA08",
":. c #FFDA08",
">. c #FFDB08",
",. c #FBCD18",
"<. c #FBCE18",
"1. c #FFDA15",
"2. c #FFDB15",
"3. c #FFDB16",
"4. c #FFDB17",
"5. c #FFDC16",
"6. c #FFDD16",
"7. c #FEDA1F",
"8. c #F9CB2E",
"9. c #F8CA2F",
"0. c #FEDA21",
"q. c #FFDE27",
"w. c #FFDE28",
"e. c #FFDF28",
"r. c #FFDE29",
"t. c #FFDF2B",
"y. c #FBC930",
"u. c #FBC932",
"i. c #FBCE3B",
"p. c #FCCE3B",
"a. c #FDDB36",
"s. c #FFE029",
"d. c #FFE22B",
"f. c #FFE13B",
"g. c #FFE13C",
"h. c #FFE23D",
"j. c #FFE33D",
"k. c #FFE23E",
"l. c #FFE33F",
"z. c #FCDC4B",
"x. c #FCDD4C",
"c. c #FEE540",
"v. c #FDE04B",
"b. c #FEE14B",
"n. c #FFE450",
"m. c #FFE550",
"M. c #FFE451",
"N. c #FFE551",
"B. c #FFE552",
"V. c #FFE553",
"C. c #FFE652",
"Z. c #FFE653",
"A. c #FFE754",
"S. c #FFE856",
"D. c #FDE160",
"F. c #FDE162",
"G. c #FFE866",
"H. c #FFE967",
"J. c #FFEA68",
"K. c #FFEA69",
"L. c #FEEA6A",
"P. c #FEEB76",
"I. c #FEEC77",
"U. c #FFEC79",
"Y. c #FFEC7A",
"T. c #FFED7A",
"R. c #FFED7B",
"E. c #FEEB7D",
"W. c #FFED7C",
"Q. c #FFEC7D",
"!. c #FFEE7D",
"~. c #FEEF86",
"^. c #FFF086",
"/. c #FEF187",
/* pixels */
"                                                                                                    ",
"                                                                                                    ",
"                                              X o o +                                               ",
"                                        % : z y.i.p.y.z , %                                         ",
"                                    . 3 8.D.!.^.^.^.~.E.D.8.3 @                                     ",
"                                  % j z.I.!.!.T.T.T.T.T.T.P.x.j &                                   ",
"                                * u v.L.L.L.H.H.H.H.H.H.H.L.L.v.k *                                 ",
"                                6 a.S.A.C.C.C.C.C.C.C.C.C.C.C.A.a.5                                 ",
"                              = ,.g.c.g.f.f.f.g.g.g.g.f.f.g.g.g.g.,.=                               ",
"                              2 0.s.s.e.q.e.e.e.e.e.e.e.e.q.e.e.e.7.2                               ",
"                            ; T 5.5.2.2.2.5.2.5.5.5.5.5.5.5.2.2.2.2.Z                               ",
"                            , Y >.*.*.>.>.>.*.>.>.>.>.>.>.>.>.>.>.>.Y <                             ",
"                            7 J %.%.%.%.%.%.%.%.%.%.%.%.%.%.%.%.%.%.J 7                             ",
"                            w R %.%.%.%.%.%.%.%.%.%.%.%.%.%.%.%.%.%.R 7                             ",
"                            w J %.%.%.%.%.%.%.' ' ' %.%.%.%.%.%.' ' J 7                             ",
"                              D ' ' ' ' ' %.%.' ' ' %.%.%.%.%.' ' ' D                               ",
"                              M ' ' ' ' ' ' ' ' ' ' ' ' ' ' ' ' ' ' M                               ",
"                              p J R ' ' ' ' ' ' ' ' ' ' ' ' ' ' ' J p                               ",
"                                M R R R R R R ' ' ' R ' R R R R R V                                 ",
"                                w c R R R R R R R R R R R R R R c r                                 ",
"                                  r c J R R R R R R R R R R J c f                                   ",
"                                    r V D J J J J J J J J D V f                                     ",
"                                        a V c D D D D D V a                                         ",
"                                              h l l h                                               ",
"                                                                                                    ",
"                                                                                                    "
};
