/* XPM */
static char *cf00fbd4fd524fcdac086dd01a9447bcP2PBX1I4LD0W5sUj[] = {
/* columns rows colors chars-per-pixel */
"50 52 151 2 ",
"   c None",
".  c #110D06",
"X  c #07110F",
"o  c #0F130C",
"O  c #0B0F15",
"+  c #110F10",
"@  c #061313",
"#  c #0B1215",
"$  c #03161C",
"%  c #0B141A",
"&  c #03191E",
"*  c #0D191E",
"=  c #131713",
"-  c #1B1714",
";  c #151B17",
":  c #1A1916",
">  c #14161C",
",  c #19171A",
"<  c #151A1B",
"1  c #1D1D1D",
"2  c #201613",
"3  c #221914",
"4  c #221E1D",
"5  c #1D211E",
"6  c #22211E",
"7  c #29231E",
"8  c #0F1720",
"9  c #031A22",
"0  c #0C1C22",
"q  c #011F2B",
"w  c #0F1F29",
"e  c #131D22",
"r  c #1C1E21",
"t  c #001F32",
"y  c #211F21",
"u  c #291F20",
"i  c #04232C",
"p  c #0E252E",
"a  c #0F282E",
"s  c #162025",
"d  c #1E2123",
"f  c #14252E",
"g  c #192528",
"h  c #052433",
"j  c #032937",
"k  c #0C2835",
"l  c #00273A",
"z  c #112736",
"x  c #152633",
"c  c #102934",
"v  c #102936",
"b  c #18273B",
"n  c #112838",
"m  c #11283A",
"M  c #202020",
"N  c #212120",
"B  c gray13",
"V  c #222120",
"C  c #232120",
"Z  c #232121",
"A  c #212220",
"S  c #202221",
"D  c #222220",
"F  c #232220",
"G  c #222221",
"H  c #232221",
"J  c #232321",
"K  c #202122",
"L  c #212122",
"P  c #212123",
"I  c #222122",
"U  c #212222",
"Y  c #212223",
"T  c #222222",
"R  c #232322",
"E  c #222223",
"W  c #222323",
"Q  c #232323",
"!  c #252220",
"~  c #252320",
"^  c #242321",
"/  c #242122",
"(  c #242322",
")  c #242323",
"_  c #252323",
"`  c #262322",
"'  c #212421",
"]  c #222522",
"[  c #252422",
"{  c #252522",
"}  c #242423",
"|  c #252423",
" . c #252523",
".. c #262422",
"X. c #272422",
"o. c #262423",
"O. c #262523",
"+. c #202125",
"@. c #212224",
"#. c #222324",
"$. c #232324",
"%. c #222325",
"&. c #212326",
"*. c #222326",
"=. c #222327",
"-. c #252325",
";. c #262324",
":. c #232424",
">. c #232525",
",. c #212427",
"<. c #232427",
"1. c gray14",
"2. c #252424",
"3. c #252524",
"4. c #242425",
"5. c #252425",
"6. c #242525",
"7. c #252525",
"8. c #262424",
"9. c #262524",
"0. c #262624",
"q. c #272624",
"w. c #272625",
"e. c #242426",
"r. c #252526",
"t. c #242427",
"y. c #242527",
"u. c #252527",
"i. c #262526",
"p. c #252626",
"a. c #252627",
"s. c gray15",
"d. c #262627",
"f. c #272727",
"g. c #232323",
"h. c #292421",
"j. c #242824",
"k. c #202029",
"l. c #202329",
"z. c #252628",
"x. c #262628",
"c. c #272728",
"v. c #262629",
"b. c #242528",
"n. c #0C2B40",
"m. c #083249",
"M. c #0C4A6A",
"N. c #0F4D69",
"B. c #0C4B6E",
"V. c #104B6D",
"C. c #104D6D",
/* pixels */
"                                                                                                    ",
"                                                                                                    ",
"                                                                                                    ",
"                                                                                                    ",
"                                                                                                    ",
"                                                                                                    ",
"                                                                                                    ",
"                                                                                                    ",
"                                                                                                    ",
"                                                                                                    ",
"                                                C.N.V.B.M.                                          ",
"                                      d 1 g a k v v n n z f p i h                                   ",
"                                x f s d R d r e d d d d d r < e e w p                               ",
"                            0 0 e d @.3.3.:.@.d R O.3.3.O.R R d d e 0 w                             ",
"                          s e e r r R 3.3.3.R y R 3.3.3.O.R R R d r * 0                             ",
"                        0 < 1 1 1 6 R ^ ^ O.R y R :.3.3.^ R R R @.d < * i                           ",
"                      e < < 1 1 R ^ 6 6 6 6 6 1 r R R R 6 6 O.O.3.@.r < & q n.                      ",
"                    0 ; 1 1 1 R ^ ^ 6 4 1 1 1 1 1 1 1 1 1 R O.O.3.3.R 1 < > e b                     ",
"                  9 * : 5 1 1 R 3.O.R 1 1 1 1 1 1 1 1 1 1 6 R O.3.O.R 1 1 : 2 e m.                  ",
"                0 8 1 4 R R R R R R r 1 1 r r r r 1 1 1 1 1 6 R ^ R 6 4 1 1 3 < j                   ",
"              % > 1 4 7 O.:.@.d 1 1 r r @.@.:.:.@.@.3.R R 1 1 4 4 6 6 R W W R 1 9 i                 ",
"            9 # < 1 4 4 ^ 3.@.1 1 1 r R 3.v.v.v.v.3.3.3.R R R 1 1 1 R O.O.3.k.r = X *               ",
"            0 # < 1 r r R R R 1 1 1 R 3.3.v.3.3.3.3.3.3.3.3.3.R 1 1 R O.O.;.k.r - . e               ",
"            e = 1 6 R R 6 4 1 1 4 R ^ O.3.3.O.;.3.3.3.3.v.v.3.R 1 1 R R ^ ^ y 1 : o w               ",
"            e < 6 6 O.:.R 1 1 1 6 O.3.3.O.R y R @.3.3.3.3.3.3.R 1 1 1 4 4 4 y 4 1 : 0 l             ",
"            * s d 7 X.b.:.R 1 1 R 3.3.3.R 1 1 1 R R R 3.3.3.3.R 1 1 1 1 4 6 ^ ^ R 1 # q             ",
"            > r d 7 X.:.@.R 1 1 R 3.3.R R 1 1 1 1 r 1 R R 3.3.R 1 1 1 1 R ^ O.3.@.1 # 9             ",
"            > r 5 6 6 @.R 1 1 1 R 3.3.3.R R R R R R R R @.3.3.R 1 1 1 1 y R O.:.@.1 # 9             ",
"            , 1 5 5 5 y r 1 1 1 R 3.3.3.R R R R R R R R @.3.3.R 1 1 1 1 y R d d d 1 # 9             ",
"            , 1 R 5 W @.R 1 1 1 R 3.3.R R R 1 1 1 1 1 R R 3.3.R 1 1 1 R @.@.d 5 1 - O q             ",
"            , 4 W ] :.u.;.R 1 1 1 @.3.@.R R R r R R R R R 3.3.R 1 1 1 R 3.@.d 5 4 2 # t             ",
"              1 R d W ;.^ 1 1 1 1 R @.3.3.3.3.;.3.3.3.3.3.3.3.R 1 1 R 3.3.3.3.6 4 : % t             ",
"              1 1 5 5 y 4 1 1 1 1 1 R R 3.3.3.3.3.3.3.3.3.3.R 1 1 1 R 3.3.3.h.4 4 < $ q             ",
"              < 1 1 1 y y R 1 1 1 1 1 R 3.3.3.3.3.3.v.3.@.R 1 1 1 R 3.3.:.3.h.4 1 * q               ",
"                < 1 y ^ ^ R R 1 1 1 1 5 R 3.3.3.3.3.3.@.R 1 1 1 1 R 3.3.:.:.u 4 < &                 ",
"                < 1 y ^ ^ R R R R R 1 1 1 1 1 1 1 1 1 1 1 1 R R R R R R d :.4 4 > 9                 ",
"                  < 1 4 R R R R :.W 6 1 1 1 1 1 1 1 1 1 1 d R 3.3.R R R d d 1 1                     ",
"                  < < 1 1 R R :.:.W W 6 1 1 1 1 1 1 1 1 r @.:.3.3.R R 1 1 1 1                       ",
"                    % , 1 d W 3.0.0.W W d 1 r d R R d 1 r @.3.3.3.R R 1 1 1                         ",
"                      > > 1 R O.O.O.3.:.d d d @.3.^ 6 4 4 R ^ ^ ^ R 4 1 ,                           ",
"                        0 < 4 6 7 O.3.@.d d b.v.^ 6 4 4 1 4 6 6 4 4 1 ,                             ",
"                          e 1 4 6 6 ^ @.d d :.3.@.R 1 1 1 1 1 1 1 1 >                               ",
"                            r 1 4 4 4 y r d R 4 y r 1 1 1 1 1 1 r < %                               ",
"                              r 5 1 1 1 1 < : 3 1 1 < : : : 1 1 1 <                                 ",
"                                  0 % % # @ # + # % # # # # < 1                                     ",
"                                        $ & $ %                                                     ",
"                                                                                                    ",
"                                                                                                    ",
"                                                                                                    ",
"                                                                                                    ",
"                                                                                                    ",
"                                                                                                    "
};
