/* XPM */
static char *d8751bc2e667467daed9383ea5f8c630DZbNcOo00254JcaL[] = {
/* columns rows colors chars-per-pixel */
"40 52 223 2 ",
"   c None",
".  c #1F1E15",
"X  c #211E14",
"o  c #252215",
"O  c #24221B",
"+  c #2D291C",
"@  c #2C2615",
"#  c #322B16",
"$  c #332C1D",
"%  c #3C331C",
"&  c #2B2A24",
"*  c #332E27",
"=  c #3B3523",
"-  c #3E3924",
";  c #35322C",
":  c #3B362B",
">  c #373426",
",  c #3D3A34",
"<  c #3D3834",
"1  c #44391C",
"2  c #433A23",
"3  c #433D2B",
"4  c #493E28",
"5  c #423D33",
"6  c #413834",
"7  c #4C4325",
"8  c #4C442B",
"9  c #474229",
"0  c #544B2A",
"q  c #574A25",
"w  c #5C512C",
"e  c #454132",
"r  c #4B4434",
"t  c #4E4935",
"y  c #44423A",
"u  c #4B473A",
"i  c #4D493C",
"p  c #544D35",
"a  c #544E3A",
"s  c #574D36",
"d  c #5B5233",
"f  c #5B523C",
"g  c #55513F",
"h  c #685A2D",
"j  c #665B38",
"k  c #6D613A",
"l  c #72653C",
"z  c #7B6C3C",
"x  c #766737",
"c  c #7E713C",
"v  c #4C4943",
"b  c #555143",
"n  c #5B5544",
"m  c #5A564A",
"M  c #58554B",
"N  c #5C5753",
"B  c #515046",
"V  c #635C45",
"C  c #645C4C",
"Z  c #635849",
"A  c #615653",
"S  c #625B55",
"D  c #685D5B",
"F  c #6D6543",
"G  c #6A644D",
"H  c #756B43",
"J  c #746847",
"K  c #7D724A",
"L  c #666152",
"P  c #696253",
"I  c #6B665B",
"U  c #736C5C",
"Y  c #746E5B",
"T  c #7B745E",
"R  c #7E7453",
"E  c #736E63",
"W  c #75716A",
"Q  c #79736A",
"!  c #797367",
"~  c #7A7874",
"^  c #6B6B66",
"/  c #87763A",
"(  c #826F3D",
")  c #847545",
"_  c #8D7942",
"`  c #887A4A",
"'  c #817653",
"]  c #897E5E",
"[  c #867B59",
"{  c #99634F",
"}  c #887C67",
"|  c #867B74",
" . c #937F7A",
".. c #A17A6B",
"X. c #A76C57",
"o. c #8F814B",
"O. c #95854B",
"+. c #9C8949",
"@. c #988547",
"#. c #8F805C",
"$. c #898156",
"%. c #988A5A",
"&. c #A28D48",
"*. c #A89758",
"=. c #B19E5A",
"-. c #B29D51",
";. c #A49049",
":. c #BBA454",
">. c #B4A35B",
",. c #BAA559",
"<. c #B9A658",
"1. c #888169",
"2. c #9A8C64",
"3. c #958B68",
"4. c #9A916A",
"5. c #85827C",
"6. c #8A8579",
"7. c #94857B",
"8. c #9B9374",
"9. c #AB9C69",
"0. c #A79863",
"q. c #AC8879",
"w. c #A69975",
"e. c #B38E6E",
"r. c #B8A662",
"t. c #BAAE7C",
"y. c #AFA376",
"u. c #C2AA57",
"i. c #C7B25E",
"p. c #D2BA5B",
"a. c #C28C77",
"s. c #C1AF6A",
"d. c #C9B569",
"f. c #D4BC66",
"g. c #D5BC69",
"h. c #C8B97A",
"j. c #F1D25E",
"k. c #EECE5D",
"l. c #DCC265",
"z. c #DAC36B",
"x. c #DDC875",
"c. c #D8C578",
"v. c #E5CB6B",
"b. c #E9CE6B",
"n. c #E5C965",
"m. c #EDD36C",
"M. c #EFD165",
"N. c #F5DA6B",
"B. c #F5D768",
"V. c #E5CE72",
"C. c #E5CE78",
"Z. c #ECD473",
"A. c #EAD376",
"S. c #F3D973",
"D. c #F2D878",
"F. c #8A8783",
"G. c #999690",
"H. c #A7968A",
"J. c #A59D94",
"K. c #B99B8C",
"L. c #B9AB8A",
"P. c #BDA497",
"I. c #B2AA92",
"U. c #B4B4AE",
"Y. c #B5B5B3",
"T. c #BDBCBB",
"R. c #B8B7B6",
"E. c #B0A9A5",
"W. c #C49888",
"Q. c #CBA597",
"!. c #D1AA99",
"~. c #C6B983",
"^. c #CAB4AA",
"/. c #D4B8A8",
"(. c #C8BDB7",
"). c #D9BDB4",
"_. c #C7ADA2",
"`. c #DCCC83",
"'. c #D6C587",
"]. c #D8C799",
"[. c #E8D486",
"{. c #F3DB85",
"}. c #E9DA9A",
"|. c #EAD78B",
" X c #F4E298",
".X c #DDC6A4",
"XX c #CDC2BA",
"oX c #C1C1BF",
"OX c #D2C4BD",
"+X c #E2C9BD",
"@X c #E0C2B7",
"#X c #E0C8A1",
"$X c #F3E3A5",
"%X c #BFBEC0",
"&X c #C4C4C3",
"*X c #C7C8C6",
"=X c #C9C9C6",
"-X c #CCCCCC",
";X c #C8C7C7",
":X c #D0CFCD",
">X c #DFC9C0",
",X c #CFD0CE",
"<X c #D0D0CF",
"1X c #CFCFD0",
"2X c #D0CFD1",
"3X c #CFD1D2",
"4X c #D3D3D3",
"5X c #D9D9D6",
"6X c #D7D7D8",
"7X c #DCDCDC",
"8X c #D8D8D6",
"9X c #E4CEC2",
"0X c #E2CEC9",
"qX c #E8D5CA",
"wX c #EDDCD5",
"eX c #DFE0DE",
"rX c #E1E0DF",
"tX c #F2E3D9",
"yX c #DFDEE0",
"uX c #E0DFE1",
"iX c #DDE0E0",
"pX c #E1E1E2",
"aX c #F9EEE5",
/* pixels */
"                                                                                ",
"                                                                                ",
"                      5 N S S S A Z A A A A S S S S A N v                       ",
"                      N E.XXXXXX(.^.^.(.XX(.XXXXXXXX(.^.| 6                     ",
"                      A OXaXwX9XQ.Q./.!./.^.^.K./.9XwXwX7.6                     ",
"                      D OX0Xq.W.X.a.Q.{ W.q.Q.../.q.P.wX7.<                     ",
"                      D OXtX).!.e.W.Q.q.W.K.+XP.9X_.>XwX7.6                     ",
"                      Z ^.qXqX0X@X).+X9X+X+XqX9XqXqXqX0X .*                     ",
"        B S y v y e V 8.]..X/.J.H.H.K.L..X#X.X.XP.H.H.H.} J ' ' [ Y i , &       ",
"        S J.6.6.8.t.}.$X$X].H.| ! ] 9.'. X X].w.Y C Z K r.C.{.[.t.R b v ;       ",
"        y G.J *.x.D.{.h.$.p e 8 l <.Z.S.C.0.j 3 - 0 o.f.S.Z.d.) 7 = 2 G 5       ",
"        u y.r.b.M.z.*.d = = 0 O.f.m.b.u.z 2 > 3 l r.b.M.l.+.0 = = w *.~.a       ",
"        T }.D.l.&.w # & & = H O.+.@.x % o O + d ` +.+./ q @ o $ x f.S.`.a       ",
"        8.$Xd.z 1 : M N I S L L L L m M M M M N L L L S N N B 7 u.S.z.0.r       ",
"        1.L.p % $ ^ &X-X8X5X8X8X5X8X=X&XoXT.&X-X5X5X7X5X7X7XT.f >.>.l a ;       ",
"        v ! - 7 8 W -X5XrX7X7XeXrX7X-X=X5.^ (.7XrXeXrXrXeXpX&Xi d 7 3 i ;       ",
"        y T c <.) W <XyXuXyX7X7X7X4X-XE.V V F.7XeXeX7X7XiXpXoX5 $ 9 j 4.i       ",
"        n h.b.n._ W 8XyX7X7X7X7X4X-X&XI %.s.C &XpX7X7XeXeXpXoX5 7 @.z.`.a       ",
"        3. XZ.<.w Q 7XyX7X7X7X7X4X-XG.t K ) t ~ 7X7X7X7X7XuX&Xf ;.m.S.h.t       ",
"        3.].o.7 $ ~ 7X7X7X7X7X5X-XT.P K 4 = s n U.eX7X7X7X7XT.f u.v.-.F ;       ",
"        L T - = > ~ 7X7X7X7X7X4X-X5.K *.9 : j %.E 4X7X7X7X7XR.f O.x 9 e ;       ",
"        , n 7 z l | 7X7X7X7X7X4XU.V i.u.w 1 / f.l J.7X7X7X7XT.y % = 3 G 5       ",
"        e [ ,.l.O.6.7X7X7X7X8X-XW O.k.k.:.&.p.j.:.C =X7X7X7XT.y $ w %.L.a       ",
"        R `.S.v.` 6.5X7X7X8X-XJ.V g.M.M.-./ p.j.M.) F.4X7X7XT.n z d.C.'.V       ",
"        4.[.d.o.f 5.5X5X4X-X%XE R r.,.=.) k *.,.u.%.N T.8X4XY.f >.V.c.4.e       ",
"        1.2.k a i 5.8X,X<X,X;XF.I T U I I E U T Y U ~ *X-X4XR.f =.>.K b ;       ",
"        b g a V V 5.4X-X-X=X&X&XT.T.=X<X-X*X-X=X=X=X-X4X-X7XT.a F p a b ;       ",
"        y V ' 9.[ 5.<X-X*X&X*X=X&X*X8X7X4X-X4X-X-X-X<X-X4X7XT.B r 8 F 4.t       ",
"        f 9.c.g.` ~ 4X-X;X=X*X-X&X-X8X7X<X-X4X4X-X3X4X-X-X8XR.b d o.h.'.f       ",
"        #.[.x.=.d ~ 8X-X&X&X&X-X*X<X5X7X-X-X6X4X-X8X7X4X-X-XU.a ;.b.V.h.t       ",
"        2.'.O.7 $ ~ 4X-X-X-X-X-X-X8X6X4X4X8X6X8X8X8X6X8X4X4XR.f u.v.>.J ;       ",
"        C F - = * ~ <X-X-X-X-X-X8X8X4X4X8X8X8X8X8X8X8X8X8X4XY.f O.z 7 r ;       ",
"        , e 7 z k Q -X-X-X-X-X-X8X4X4X8X8X8X8X8X8X8X8X8X4X8XR.u - = 2 V ,       ",
"        3 z ,.l._ Q -X-X-X-X-X4X4X8X8X8X8X4X4X8X8X8X8X8X8X8XR., % w O.~.a       ",
"        K C.S.l.z W -X-X-X-X-X-X4X8X4X4X4X4X4X4X4X4X4X4X8X4XY.y k d.Z.`.a       ",
"        2.{.f.) 2 W -X-X-X-X-X-X8X4X4X4X4X4X4X4X4X4X4X4X4X8XY.s :.m.x.9.3       ",
"        ] 0.w = & W -X-X-X-X-X4X4X4X4X4X4X4X4X4X4X4X4X4X4X4XY.f <.,.l a ;       ",
"        r t = 7 8 W -X-X-X-X4X4X4X4X4X4X4X4X4X4X4X4X4X4X4X4XY.t j 7 = i ,       ",
"        : 0 x -.) Q -X*X*X2X4X4X4X4X4X4X4X4X4X4X4X4X<X4X4X4XY.< $ - d 3.t       ",
"        d =.v.n._ ! *X*X-X2X4X4X4X4X4X4X4X4X4X4X4X4X<X4X4X4XY., 1 _ g.`.s       ",
"        %.{.S.u.j W *X-X-X2X4X4X4X4X4X4X4X4X1X4X4X4X2X4X,X4XY.t +.b.S.c.p       ",
"        2.c.@.0 = W -X-X,X<X4X2X2X4X<X4X<X<X1X1X4X4X:X:X2X4XY.d u.v.<.H >       ",
"        L F 2 3 > W -X-X-X-X:X:X-X-X:X:X:X-X1X-X-X1X-X:X1X4XY.a +.c 7 r ;       ",
"        , e 7 z j W -X<X2X2X<X:X2X2X2X1X,X,X1X1X2X2X,X,X:X4XY.5 2 = - Z ,       ",
"        5 H =.f._ I Y.R.Y.Y.Y.U.U.Y.Y.Y.Y.U.Y.Y.Y.Y.Y.U.Y.R.J.: # 0 O.h.a       ",
"        R x.N.n.( 3 y < i ] #.#.J 5 < m ] #.] V < , L 1.#.] t @ h i.Z.`.s       ",
"        2.{.f._ 2 J d . * r.A.Z.d.1 X 8 h.Z.A.*.# X j x.Z.A.) 1 :.S.V.9.5       ",
"        } 9.h = $ ` *.+ X l m.B.m.) o @ O.N.B.v.h X # ,.N.N.r.q :.,.z s ;       ",
"        u t = 9 r _ c.w X % ,.N.B.d.1 X 7 z.B.N.*.# X k b.B.f.q j 0 - u ;       ",
"        , b G w.' ) `.%.+ o z x.b.x.H o @ O.V.V.c.d o % r.A.s.4 e a m 1.y       ",
"        & , m G r 4 F n + O $ j l F p O O 2 k l F e O O 8 l j $ ; < v m *       ",
"                                                                                "
};
