/* XPM */
static char *_dba7253e5794648e14a95565f5c1695LppHi3rDl2x78Pbt[] = {
/* columns rows colors chars-per-pixel */
"40 52 221 2 ",
"   c None",
".  c #000001",
"X  c #090303",
"o  c #0C0B07",
"O  c #0A0A0A",
"+  c #110E0A",
"@  c #14120B",
"#  c #1A150E",
"$  c #1F1A0F",
"%  c #1A1812",
"&  c #231E13",
"*  c #281D12",
"=  c #261F0F",
"-  c #242113",
";  c #24211A",
":  c #2E291B",
">  c #2A2517",
",  c #332D1B",
"<  c #382F17",
"1  c #36311E",
"2  c #3C351E",
"3  c #3C3518",
"4  c #2C2A25",
"5  c #322E22",
"6  c #312F2C",
"7  c #3B3522",
"8  c #3E3922",
"9  c #34332D",
"0  c #3B362C",
"q  c #3D392C",
"w  c #363022",
"e  c #363432",
"r  c #3C3934",
"t  c #3D3936",
"y  c #2F302B",
"u  c #443B1D",
"i  c #433B24",
"p  c #453E2A",
"a  c #453B25",
"s  c #423D35",
"d  c #413E39",
"f  c #3F4035",
"g  c #4C4425",
"h  c #4C442B",
"j  c #464028",
"k  c #54492A",
"l  c #544826",
"z  c #5D512B",
"x  c #4A4534",
"c  c #4B473C",
"v  c #4C493B",
"b  c #484536",
"n  c #544C34",
"m  c #534D3C",
"M  c #594F33",
"N  c #5C5335",
"B  c #5B533C",
"V  c #54513E",
"C  c #67592D",
"Z  c #645A35",
"A  c #6A5D33",
"S  c #635A3D",
"D  c #695B3B",
"F  c #635636",
"G  c #705E2D",
"H  c #6E6235",
"J  c #7B6A34",
"K  c #7B6C3D",
"L  c #756738",
"P  c #6F602E",
"I  c #4D4542",
"U  c #4E4A43",
"Y  c #4F4F4B",
"T  c #514B45",
"R  c #534C49",
"E  c #5A5344",
"W  c #53524A",
"Q  c #5B564B",
"!  c #5B5647",
"~  c #5B5850",
"^  c #635C45",
"/  c #635E4D",
"(  c #60544F",
")  c #615955",
"_  c #6B634C",
"`  c #6B6349",
"'  c #766A45",
"]  c #6B6554",
"[  c #686454",
"{  c #746B57",
"}  c #7D7351",
"|  c #78725A",
" . c #7E7148",
".. c #6E6E6B",
"X. c #6A6A65",
"o. c #736E65",
"O. c #726F69",
"+. c #7C7361",
"@. c #7A776B",
"#. c #6F706D",
"$. c #83733C",
"%. c #847542",
"&. c #897B46",
"*. c #83795C",
"=. c #837757",
"-. c #827963",
";. c #8B7D73",
":. c #AD7B67",
">. c #B17C69",
",. c #988649",
"<. c #8F8558",
"1. c #998B58",
"2. c #9F905A",
"3. c #A28E4D",
"4. c #AE9B56",
"5. c #A89658",
"6. c #B19D55",
"7. c #B09A59",
"8. c #A5904F",
"9. c #B4A15B",
"0. c #BBA657",
"q. c #948A66",
"w. c #9C9168",
"e. c #888474",
"r. c #958979",
"t. c #9E9773",
"y. c #8B8168",
"u. c #A2966C",
"i. c #AB9C69",
"p. c #B19E63",
"a. c #AC8879",
"s. c #A69974",
"d. c #B48775",
"f. c #B6A568",
"g. c #B7A977",
"h. c #AFA16F",
"j. c #C4AC5B",
"k. c #C8B25E",
"l. c #D6BB5E",
"z. c #C2AF65",
"x. c #C9B566",
"c. c #D4BB64",
"v. c #D4BD6B",
"b. c #DABE62",
"n. c #C8B877",
"m. c #D3BF72",
"M. c #DBC46B",
"N. c #DBC469",
"B. c #DEC872",
"V. c #DBC677",
"C. c #E4CB6B",
"Z. c #EBCE6A",
"A. c #E5CA68",
"S. c #ECD26C",
"D. c #EDD166",
"F. c #F2D66E",
"G. c #F5DA6C",
"H. c #F8DA66",
"J. c #E5CC72",
"K. c #E3CC78",
"L. c #EDD472",
"P. c #E9D27F",
"I. c #F3D974",
"U. c #F2DA7B",
"Y. c #F0D674",
"T. c #988983",
"R. c #9F9688",
"E. c #959392",
"W. c #8C8B8A",
"Q. c #B89688",
"!. c #B79F95",
"~. c #A59E8C",
"^. c #B7A39D",
"/. c #B8B08E",
"(. c #B9ABA5",
"). c #B8ADA7",
"_. c #B5B4B7",
"`. c #C39C8B",
"'. c #C9BB87",
"]. c #CBA898",
"[. c #CBB79C",
"{. c #D5AA98",
"}. c #CCB4A9",
"|. c #D2BBAE",
" X c #D9B7A9",
".X c #CBBAB2",
"XX c #D6BEB2",
"oX c #D4C384",
"OX c #D6C688",
"+X c #D9C996",
"@X c #CBC088",
"#X c #E8D589",
"$X c #F2DC85",
"%X c #F3DB89",
"&X c #E8D596",
"*X c #E2CF8B",
"=X c #F4E399",
"-X c #F4E089",
";X c #D8C2AC",
":X c #C3C1BE",
">X c #CFC0B9",
",X c #DBC2B2",
"<X c #D2C4BF",
"1X c #DDD3A0",
"2X c #E9D8A6",
"3X c #E1CABD",
"4X c #EAD7B1",
"5X c #C3C2C3",
"6X c #CECECD",
"7X c #D0CFCE",
"8X c #CFD0CE",
"9X c #D0D0CE",
"0X c #CFCFD0",
"qX c #D0CFD0",
"wX c #CFD0D1",
"eX c #D0D0D0",
"rX c #E7D4CB",
"tX c #EBDAD2",
"yX c #EDD6CD",
"uX c #F4E3DB",
"iX c #F7ECE4",
/* pixels */
"                                                                                ",
"                                                                                ",
"                    6 U T T U T I I I I U U T T T T I I d                       ",
"                    W ~.).).).(.^.^.^.(.(.(.).).).(.^.!.;.t                     ",
"                    ( >XiXuXtX,X X,X,X3X3X3XXX|.rXtXuXrXT.s                     ",
"                    ) <XtX^.].:.:.{.>.d.`.Q.d.a.}.Q.XXtXT.t                     ",
"                    ) <XtXQ.`.:.>.{.:.:.`.`.].!.,Xa.}.tXT.t                     ",
"                    ( XXiXuXrX X]. X X XXX3XrX3XyXyXuXtXT.t                     ",
"    9 f r e e r r 0 ] [.,X,X|.}.}.|.|.;X;X;X;X,X|..X.X}.r.p n m m v s r 9       ",
"    W r.o.) ) [ | /.+X2X4X;XR.;.;.r.s.+X&X2X2X[.r.-.+.=.<.h.'.oX'.s.] U b 4     ",
"    d r.R.e.t.@X#X=X=X+Xt.+.] [ } f.K.$X$XOXw.` m n Z 8.M.U.U.V.2.S b v U 6     ",
"    9 e.*.%.c.Y.I.B.5.N q 7 g $.k.S.I.B.5.F 8 7 j K j.F.G.C.4.A i 7 a } -.r     ",
"    q t.oXZ.D.N.6.A 2 5 7 F 5.N.A.N.9.H 2 5 7 N 5.N.A.A.0.L u 1 2 C 4.*Xu.0     ",
"    Q 1X-XL.0.G < - ; ; w S K J J C < - ; ; 5 S K J J C 3 - ; : L c.I.$Xw.0     ",
"    [ 4XOX,.l , W ....X.O.O.o.o.o.o.o...#...O.O.o.o.o.o.O.O.X.s 7.D.C.f.^ 9     ",
"    ~ (.| 8 1 6 E.6X6X6X0XwXwX8X9XeX9X9X0XwX8X9X7X9X8X8X0X7X5XQ 5.9.L n c y     ",
"    r @.E i M m E.6X6X6XeXeXeX9X9XeXeXeXeXeXeX9X9X9XeXeXeXeX5XW N g 7 n T 9     ",
"    9 | ' ,.f._ E.6X6XqX9X9X9XeX9X9X9X9XeXwX9X9X9XwXeXeXeX9X5XI : 7 h <.y.0     ",
"    b s.V.S.l.' E.7X7X0X8X7XqX0X0X8X6X6X8X0X7X6X6X0X0X7XqXeX5XI 1 J 0.#Xu.0     ",
"    / &XU.C.8.h E.9X7X6X8X7XqX6X8X8X6X0X0X6X0X0X6X7X6X6X8X8X5XR %.N.I.$Xq.      ",
"    [ 2Xn.$.u 5 W.5X5X5X:X:X:X5X5X5X5X:X:X:X5X5X5X5X5X:X:X:X_.Q 4.Z.c.2.B       ",
"    Q ~.N 7 w 4 U W Y ~ +.*.*.| W Y ~ +.*.*.| Q Y W { *.*.*.Q 7 2.3.C n c       ",
"    r [ j g H B { 7 & 7 h.B.M.x.g & : 2.V.M.m.A - - =.V.M.V.%.= h i 7 n Q       ",
"    0 _ K 6.x.' u.' - - %.L.H.F.,.> - A J.H.G.9.< & g v.G.G.x.< : 8 z u.q.      ",
"    x i.B.F.l.L i.f.3 $ u x.G.H.v.g & , 9.G.H.J.A - > ,.F.H.B.k u &.v.%Xs.      ",
"    ` &XU.M.,.h i.#X' - - &.Y.G.U.<.> - A J.G.I.p., & l M.I.V.F ,.A.I.P.<.      ",
"    ] +X9.H 2 5 } h.=.4 ; a 5.f.p.q.w ; 1 <.f.p.u.h ; :  .p.w.n 7.A.k.&.V       ",
"    W -.h 7 w : @ # # O O O @ # # # O O O @ # # # @ O O + # @ > <.&.l x c       ",
"    9 V i k %.m X . . . . . . . . . . . . . . . . . . . . . . + i 8 7 B /       ",
"    9 S %.k.c.D X . . . . . . . . . . . . . . . . . . . . . . o : i H g.w.      ",
"    v g.J.G.l.N X . . . . . . . . . . . . . . . . . . . . . . o g 3.C.%Xu.0     ",
"    _ #XY.c.$., . . . . . . . . . . . . . . . . . . . . . . . $ 1.Z.G.K.*.9     ",
"    [ @X2.z 2 ; . . . . . . . . . . . . . . . . . . . . . . . * 4.M.6.' m 6     ",
"    U { p 7 i 5 X . . . . . . . . . . . . . . . . . . . . . . & &.L j x c 6     ",
"    9 m a C ,.B X . . . . . . . . . . . . . . . . . . . . . . + w 7 7 S ] 0     ",
"    9 ` ,.c.c.D X . . . . . . . . . . . . . . . . . . . . . . o : g %.n.t.0     ",
"    V n.L.G.k.M X . . . . . . . . . . . . . . . . . . . . . . + z 0.S.$Xu.0     ",
"    _ &XL.0.P : X . . . . . . . . . . . . . . . . . . . . . . & 5.D.F.m.} 9     ",
"    [ '.&.g 1 - X . . . . . . . . . . . . . . . . . . . . . . * 7.c.,.D v 6     ",
"    b _ i 7 a w X . . . . . . . . . . . . . . . . . . . . . . $ ' C i x c 9     ",
"    9 m j L 5.S X . . . . . . . . . . . . . . . . . . . . . . + , 7 i ` | 9     ",
"    0 ' 4.C.b.D X . . . . . . . . . . . . . . . . . . . . . . o , z ,.OXu.0     ",
"    E oXI.F.j.k X . . . . . . . . . . . . . . . . . . . . . . @ A k.L.$Xu.0     ",
"    _ #XK.5.z > . . . . . . . . . . . . . . . . . . . . . . . & 4.D.S.z.` 9     ",
"    / g.K i 1 ; X . . . . . . . . . . . . . . . . . . . . . . * 5.j.$.N c 9     ",
"    s ^ 8 8 k 0 X . . . . . . . . . . . . . . . . . . . . . . # S k 2 x U 9     ",
"    9 m k &.9.S X . . . . . . . . . . . . . . . . . . . . . . O , 7 a =.-.r     ",
"    b =.z.S.b.D X . . . . . . . . . . . . . . . . . . . . . . O , C 4.*Xu.q     ",
"    ^ OXI.S.6.p X . . . . . . . . . . . . . . . . . . . . . . @ K c.I.$Xw.q     ",
"    _ *Xv.,.l - X . . . . . . . . . . . . . . . . . . . . . . & 4.D.C.p.^ 9     ",
"    / s.Z i w ; . . . . . . . . . . . . . . . . . . . . . . . & 5.6.H n c e     ",
"    r ! p p S b X . . . . . . . . . . . . . . . . . . . . . . # N g i E W e     ",
"    9 W ! q.g.! + X . . . . . . . . . . . . . . . . . . . . . O d T ! e.@.e     ",
"    4 9 s E B 4 % @ O O O O O O O O O O O O O O O O O O O O O @ y t s U t       ",
"                                                                                ",
"                                                                                ",
"                                                                                ",
"                                                                                "
};
