/* XPM */
static char *bac6e76619484c50bac36fd39c3352669Ae42U6HKpdmBwNI[] = {
/* columns rows colors chars-per-pixel */
"45 51 240 2 ",
"   c None",
".  c #010106",
"X  c #020309",
"o  c #060A0D",
"O  c #090A0D",
"+  c #17050C",
"@  c #050A14",
"#  c #0B0E12",
"$  c #060B17",
"%  c #190512",
"&  c #0D1216",
"*  c #0B141B",
"=  c #0E1D1E",
"-  c #14181C",
";  c #260A18",
":  c #340D1B",
">  c #28151A",
",  c #0A1424",
"<  c #0E1D22",
"1  c #0C172B",
"2  c #1C1E23",
"3  c #141B24",
"4  c #101E37",
"5  c #0C162D",
"6  c #291322",
"7  c #182329",
"8  c #112234",
"9  c #14263C",
"0  c #142A2E",
"q  c #273539",
"w  c #35353B",
"e  c #292931",
"r  c #450E24",
"t  c #471125",
"y  c #51162C",
"u  c #6A1A38",
"i  c #711A37",
"p  c #522B38",
"a  c #42101A",
"s  c #101E42",
"d  c #162C48",
"f  c #1A3648",
"g  c #152B5C",
"h  c #1B3758",
"j  c #373D42",
"k  c #253A44",
"l  c #19336C",
"z  c #1A3866",
"x  c #1B3A76",
"c  c #162D65",
"v  c #213D6D",
"b  c #762445",
"n  c #26464A",
"m  c #38454C",
"M  c #384A54",
"N  c #28565B",
"B  c #2E5159",
"V  c #1E427A",
"C  c #224668",
"Z  c #385769",
"A  c #22467A",
"S  c #295473",
"D  c #315B6B",
"F  c #366878",
"G  c #37656F",
"H  c #1F4151",
"J  c #474D56",
"K  c #475459",
"L  c #4D5D6C",
"P  c #496774",
"I  c #526D72",
"U  c #66767C",
"Y  c #744750",
"T  c #822339",
"R  c #892443",
"E  c #992A4E",
"W  c #AC2954",
"Q  c #B32C51",
"!  c #A83C62",
"~  c #C42E59",
"^  c #C8315B",
"/  c #D9325F",
"(  c #CF3164",
")  c #E83869",
"_  c #E73873",
"`  c #AA4461",
"'  c #D84E75",
"]  c #E84C75",
"[  c #DC6578",
"{  c #1D3E81",
"}  c #1E4287",
"|  c #224785",
" . c #295789",
".. c #244E93",
"X. c #2B5D94",
"o. c #2A5897",
"O. c #357587",
"+. c #2D6398",
"@. c #316697",
"#. c #336E90",
"$. c #2B5CA5",
"%. c #2E65AA",
"&. c #356CA8",
"*. c #3674AC",
"=. c #3A76AC",
"-. c #366EB2",
";. c #3B7CB3",
":. c #3976B6",
">. c #49778B",
",. c #6D7F86",
"<. c #647A85",
"1. c #727D86",
"2. c #797C83",
"3. c #557BBD",
"4. c #457AAD",
"5. c #3A7CC1",
"6. c #BB7F96",
"7. c #E95782",
"8. c #E96685",
"9. c #E87893",
"0. c #D76686",
"q. c #3F8999",
"w. c #3C83BD",
"e. c #3E87B8",
"r. c #3F87AC",
"t. c #4A899B",
"y. c #558D93",
"u. c #6B8188",
"i. c #738289",
"p. c #708087",
"a. c #6F8E95",
"s. c #4997AB",
"d. c #438AB9",
"f. c #5B88BC",
"g. c #4997B7",
"h. c #5192AB",
"j. c #6194BC",
"k. c #6995AA",
"l. c #4CA4B5",
"z. c #4DA6B7",
"x. c #51ADBA",
"c. c #54AEAF",
"v. c #71AEB8",
"b. c #71C1BF",
"n. c #3E86C3",
"m. c #3F8BD0",
"M. c #438DC7",
"N. c #4492CB",
"B. c #4998C8",
"V. c #579CCA",
"C. c #438DD1",
"Z. c #479CD3",
"A. c #479CD2",
"S. c #6396C3",
"D. c #4BA4CA",
"F. c #55A8C9",
"G. c #53B3CE",
"H. c #57BDCE",
"J. c #4BA5D9",
"K. c #51ADD5",
"L. c #54B8D2",
"P. c #67B7D7",
"I. c #72B4CC",
"U. c #489FE0",
"Y. c #4DAAE2",
"T. c #4BA5E2",
"R. c #4FB0E3",
"E. c #51B2E5",
"W. c #57BAE7",
"Q. c #62BAE9",
"!. c #5EC9C7",
"~. c #5CC5D4",
"^. c #63CAD9",
"/. c #63D4DD",
"(. c #66D9D8",
"). c #70CDD0",
"_. c #6AE3DB",
"`. c #76E7DA",
"'. c #5CC6E5",
"]. c #65D9E2",
"[. c #7BCCE2",
"{. c #6AE5E4",
"}. c #6DEBE6",
"|. c #69E5E7",
" X c #78E9E5",
".X c #6FF1EA",
"XX c #6FF0E6",
"oX c #71F3E6",
"OX c #72F4E9",
"+X c #7BF5EB",
"@X c #77F7E9",
"#X c #79F6F2",
"$X c #869298",
"%X c #8A9FA7",
"&X c #94A7B7",
"*X c #8EABB2",
"=X c #A0ABB0",
"-X c #EC8A97",
";X c #EC8EA8",
":X c #CCA3B6",
">X c #82BAD0",
",X c #D6BCC4",
"<X c #93CBDA",
"1X c #86D8DC",
"2X c #93CBD1",
"3X c #B4D6D9",
"4X c #B0C9D3",
"5X c #84DEE4",
"6X c #B4D7E6",
"7X c #A9D5E4",
"8X c #89E9E7",
"9X c #94ECEC",
"0X c #84F5EB",
"qX c #8EF6EC",
"wX c #94F5EC",
"eX c #99F6EB",
"rX c #89F9F4",
"tX c #94F7F2",
"yX c #A8EBEA",
"uX c #A9F5ED",
"iX c #A9F6F3",
"pX c #B7F9F5",
"aX c #B1EBEE",
"sX c #C4DBDC",
"dX c #F5D7E4",
"fX c #CBEAEC",
"gX c #C5F9F5",
"hX c #CDF9F5",
"jX c #C7F6F4",
"kX c #D3FBF9",
"lX c #DBFDFB",
"zX c #D7F6F5",
"xX c #D7ECED",
"cX c #E5FAF9",
"vX c #FDFFFE",
"bX c #FEFFFE",
"nX c #FAFEFE",
"mX c #F9F1F3",
"MX c #F9E5EE",
"NX c #E6D7DD",
/* pixels */
"                                        o # # $ # #                                       ",
"                                  O e j I &X&X&X&Xa.j q &                                 ",
"                            o q I =XsXfXhXlXlXlXlXkXfXsX=X<.k #                           ",
"                          7 I 4XhXpXtXrXrXpXgXgXpXtXrXrXpXhX3Xu.q o                       ",
"                      o K 4XhXuX0XoX0XpXcXnXvXvXnXcXgXqX@X@XwXpXsXU -                     ",
"                    # I xXhXqXoX@XwXhXnXvXvXvXvXvXvXvXlXuX@XOX XuXzX$X3                   ",
"                  # U cXjX+XoXoX0XgXnXvXvXvXvXvXvXvXvXvXkXwXOXoX(.<XcX$X7                 ",
"                O L xXgX+XoXoXoX0XlXvXnXvXvXvXvXvXvXvXvXcXwXOX.X(.H.<XzXu.&               ",
"                n 3XgX XoXoXOXOXqXhXnXvXvXvXvXvXvXvXvXvXcXeXOXOX}.~.F.<XfXP &             ",
"              0 2XgX+XoXoXOXOXOX@XuXjXcXcXvXvXvXvXcXcXhXpX0XOX.XOX}.G.B.<X6XZ             ",
"            O I jX8X X+XqXeXtX@XOX+XeXeXwXhXlXkXkXeXwXwX0XOXOXqXwXwX[.F.B.7X%X,           ",
"            q 2XpX X X XwXiXlXgX0XOXOX@X@X@X@X@X@X@X@XOX.X+XiXlXiX9X[.P.M.I.3XM           ",
"            K zX9X{.x.O.q.l.8XhXhX+XOXOXOXOXOXOXOXOX.X.XOXpXlX8Xc.q. .;.M.B.6X$Xo         ",
"          * *XgX}.^.H @ . $ N ).hXgX+X.X}.]..X.X|.{..XOXiXkX1XF * X X 9 r.M.I.4Xe         ",
"          n 3XwX}.!.< . . . % M ).kXgX+X|.D.].|.K./.@XiXlX1XG ; X . . X q.B.V.6XP o       ",
"          P jX X}.!.< . . a Q E J ).kXkXtXP.d.D.g.9XgXcX1XP T Q y X . X s.K.N.7Xv.*       ",
"          u.>X^.{.!.< . ; Q ) 7.` J c.yXuXI.#.s.h.yXuX).G ` ] ) ~ : . X l.~.B.S.&X-       ",
"          i.f.H.}.(.f . r / 7.dXdXp & N N h x.!.C N N 0 > ,XMX9.) u . < H.}.L.:.&X2       ",
"          i.f.H.oX}.G . r / 8.mXmXY : i : f ~.(.S + i r p NXvX;X) u . f _..X/.4.&X2       ",
"          i.f.~.oXOXc.0 ; Q ) 9.;X[ ^ ^ : O.}.oXs.3 E ( ' -X-X] ( r & s.oXoX].;.&X2       ",
"          i.3.H.OXoXOXc.7 y Q ) _ _ ~ y f ~.oXoX].S 6 W _ ) ) ( u - y.XXoXOX/.-.&X2       ",
"          1.3.G.oXoXoX X*XJ p u i u : 9 z.OXOXOXOX~.h 6 u b u y w %X5X{.XXoX/.&.*X2       ",
"          1.3.G.oXoXs.F 8XyXv.y.Z P t.H.OX@X(.!.OXOX~.t.>.Z >.k.7X9Xt.O.{.oX/.%.j.3       ",
"          1.3.G.oX_.n , G.^.;.P.8X[.C.].@X XZ f ).@X|.A.P.0X).-.F.^.d < !.OX/.%.h.3       ",
"          1.3.G.oX_.0 $ F.F.z d.`.B.g g.@Xb.* X a.#XH.z =..XD.l #.^.8 * x.OX/.%.h.=       ",
"          1.3.G.oX_.B $ k.I.8 y.9XF.5 F }.y.o . G OXt., s.#Xl.4 >.I.3 9 !..X/.%.s.=       ",
"          1.3.G.OX}.r.@ m U * >.aXj., k 1XB . . q 5XG $ t.9Xs., m L .  .].OX/.%.s.=       ",
"          1.3.G.}.}.d.$ o # . w 3Xy.@ # a.w . . 7 %X7 o P 7XB . O # . X.].OX/.%.s.=       ",
"          1.3.D./.].d.$ . . . X I j . . 7 # . . X e o . 7 U & . . . .  .'.].~.%.s.=       ",
"          1.3.M.~.H.e.$ . . . . # # . . + % X . % % X . o - . . . . X +.K.L.K.%.s.=       ",
"          1.3.e.H.L.N.N . . . . . . . ; R ! t : E E r X . . . . . . q d.J.K.B.%.s.<       ",
"          ,.3.e.G.G.B.F . o 7 X . . + R ' 9.W R 0.' W ; . . . 7 - . M V.B.A.N.%.s.<       ",
"          ,.f.;.g.g.d.v.w m a.@ # e ; W ] ;X[ [ -X8.^ t 2 2 . I I 3 k.M.w.M.d.=.l.=       ",
"          p.S.=.=.&.@.P.2XI.4.* $XU ; W ) 9.-X-X9.] ^ r M $X3 S P.>X[.*.&.;.;.;.l.<       ",
"          p.S.=.;.X.| D.W.J.V M 6XF X R ) ] 8.8.] ) W % n aX<.g e.E.Y.+.X.-.:.;.l.<       ",
"          ,.j.*.&.V x A.R.A.V d.W.S . : ~ ) ' 8.) ^ t . f K.F.A w.Y.T.+.l +.;.=.l.<       ",
"          ,.j.-.o.c x A.R.A.V -.Y.S w w u ~ 6.:X^ i 2 j h Z.M.x w.Y.T.X.l A =.=.l.=       ",
"          ,.j.o.x g z D.R.A.V $.m.X.a.%X> u =X2Xb ; 2.*X .M.-.x w.Y.Y.X.l l | *.l.=       ",
"          p.f...x c z D.E.A.} o.-...g.aX,.w 2X XJ J 6XP. .-.$.x w.Y.T.X.l l | =.l.=       ",
"          p.f...l c z D.E.Z.} { o.A ;.W.V.I 8X#Xa.4.Q.N.V ..| x w.Y.Y. .c l | =.l.=       ",
"          p.f...x h h M.R.J.| x x x ;.R.w.d.'.'.F.*.Y.N.x l l l w.Y.Z. .c l A &.z.<       ",
"          i.S.o.v 4 8 ;.J.N.x c g l ;.R.J.J.Y.Y.K.Z.Y.N.x g g l *.J.M.v , d x &.z.<       ",
"          i.S. .1 . , *.N.n.c , @ 5 *.Y.Y.W.J.U.E.Y.Y.N.d @ $ s &.N.w.h . @ h &.l.7       ",
"          i.S. .@ . @ z w.*.1 . . . C ;.N.W.T.T.E.C.5.X.@ . . @  .n. ., . . d =.l.7       ",
"          <.V.X.@ . o , X. .@ . . . 5 o.:.N.U.T.m.:.o.d . . . . C &.9 & . . h ;.l.<       ",
"          S ;.z . .     8 d X     . o A ;.w.C.C.5.:. .* .     X 8 d     X . 4 $.$.$       ",
"          z A $ .         X           ,  .w.n.n.w.@.8 X         X           X g } ,       ",
"          4 , X                         1 @.d.w.&.d                           @ s @       ",
"          o X                             8 @.&.d                               X         ",
"                                            8 d                                           ",
"                                            . .                                           "
};
