/* XPM */
static char *d84bc20622434493f19c48335493e7c84fpi4io8bSlGbk2g[] = {
/* columns rows colors chars-per-pixel */
"45 53 247 2 ",
"   c None",
".  c #020204",
"X  c #0D0505",
"o  c #010209",
"O  c #0B080A",
"+  c #130606",
"@  c #160808",
"#  c #1A0A0A",
"$  c #190707",
"%  c #160B14",
"&  c #0F0E15",
"*  c #240B0B",
"=  c #2C0B0A",
"-  c #340E0C",
";  c #3B0E0C",
":  c #370807",
">  c #3C100F",
",  c #33100C",
"<  c #240D11",
"1  c #2C0D11",
"2  c #281413",
"3  c #381517",
"4  c #321110",
"5  c #0F0C32",
"6  c #361428",
"7  c #372E30",
"8  c #182339",
"9  c #420D0C",
"0  c #43110F",
"q  c #4A120E",
"w  c #4C1411",
"e  c #451915",
"r  c #541511",
"t  c #5B1612",
"y  c #5A1C16",
"u  c #50140F",
"i  c #631914",
"p  c #6C1A15",
"a  c #641814",
"s  c #731C16",
"d  c #7B1D18",
"f  c #502415",
"g  c #682718",
"h  c #7B2819",
"j  c #72391C",
"k  c #471E25",
"l  c #531835",
"z  c #6A1D26",
"x  c #472325",
"c  c #513136",
"v  c #72312A",
"b  c #724E30",
"n  c #5C4134",
"m  c #1E1355",
"M  c #372C50",
"N  c #281968",
"B  c #25155A",
"V  c #753846",
"C  c #6C3944",
"Z  c #525255",
"A  c #6E575B",
"S  c #66676D",
"D  c #645767",
"F  c #821F19",
"G  c #871F17",
"H  c #832119",
"J  c #8C221A",
"K  c #872C1D",
"L  c #92231C",
"P  c #9B251C",
"I  c #8A371E",
"U  c #92301E",
"Y  c #A3271D",
"T  c #A4281E",
"R  c #AB291F",
"E  c #B42A1F",
"W  c #871F26",
"Q  c #8B2323",
"!  c #882529",
"~  c #962723",
"^  c #953926",
"/  c #89312F",
"(  c #AB2B23",
")  c #A42E23",
"_  c #B42C22",
"`  c #BB2D22",
"'  c #B92D2E",
"]  c #B93428",
"[  c #B72D32",
"{  c #BA2E33",
"}  c #B72F39",
"|  c #B83737",
" . c #A63A29",
".. c #C32E23",
"X. c #CA2F25",
"o. c #C93729",
"O. c #D33125",
"+. c #DC3426",
"@. c #DA392C",
"#. c #C43833",
"$. c #D23D35",
"%. c #E23427",
"&. c #E53628",
"*. c #EB3728",
"=. c #EB3A2B",
"-. c #E63A2A",
";. c #E63D30",
":. c #944B29",
">. c #A64929",
",. c #A9582B",
"<. c #B15230",
"1. c #B76F34",
"2. c #C6462B",
"3. c #D5432D",
"4. c #C74338",
"5. c #D74736",
"6. c #D6573B",
"7. c #E7452D",
"8. c #E44838",
"9. c #E6583B",
"0. c #D86639",
"q. c #E8643E",
"w. c #ED7D3E",
"e. c #8E3843",
"r. c #BF3840",
"t. c #844F4D",
"y. c #B14C4F",
"u. c #AB6B4C",
"i. c #915E67",
"p. c #976965",
"a. c #A96775",
"s. c #A25C60",
"d. c #DE424A",
"f. c #D4454F",
"g. c #E44342",
"h. c #E44C44",
"j. c #EA4B43",
"k. c #E94B4A",
"l. c #EC5443",
"z. c #E75644",
"x. c #E55655",
"c. c #E24E52",
"v. c #D76845",
"b. c #CE7948",
"n. c #D27156",
"m. c #E97946",
"M. c #E6694E",
"N. c #D67379",
"B. c #E36A75",
"V. c #E57279",
"C. c #E46866",
"Z. c #D98739",
"A. c #D08F38",
"S. c #ED853A",
"D. c #EB923C",
"F. c #F1963F",
"G. c #F0893F",
"H. c #F2A33E",
"J. c #F2AB3F",
"K. c #E8A13F",
"L. c #9E8365",
"P. c #D78857",
"I. c #D69051",
"U. c #EA8544",
"Y. c #F08D40",
"T. c #EF9448",
"R. c #F09343",
"E. c #F19D42",
"W. c #F09949",
"Q. c #EA8C51",
"!. c #EA9758",
"~. c #F09255",
"^. c #DBA05A",
"/. c #F1A644",
"(. c #F5BC44",
"). c #F4B744",
"_. c #EBA254",
"`. c #F1AB5A",
"'. c #F1B35B",
"]. c #EEB148",
"[. c #D9906C",
"{. c #E99670",
"}. c #D6A976",
"|. c #EAA666",
" X c #F0AA6A",
".X c #ECB867",
"XX c #F2B669",
"oX c #F3BA77",
"OX c #ECAE75",
"+X c #F6C145",
"@X c #F4C578",
"#X c #291D87",
"$X c #332A94",
"%X c #392EA7",
"&X c #442696",
"*X c #3C6BA0",
"=X c #4143B2",
"-X c #5678A4",
";X c #3D2CC2",
":X c #4F3CDA",
">X c #4C53C8",
",X c #4A47C3",
"<X c #5848EB",
"1X c #586CEC",
"2X c #736CF3",
"3X c #5C63CF",
"4X c #E37A87",
"5X c #C07E89",
"6X c #63AEEF",
"7X c #608FF3",
"8X c #69C7F5",
"9X c #72D3F6",
"0X c #B88B92",
"qX c #ABA5AB",
"wX c #C88893",
"eX c #E88F94",
"rX c #D5A893",
"tX c #F2BA83",
"yX c #EDB290",
"uX c #C899A6",
"iX c #CEACB3",
"pX c #EEABB3",
"aX c #E697A3",
"sX c #F3C785",
"dX c #F5D596",
"fX c #F0C995",
"gX c #F4D8A4",
"hX c #F7DBB9",
"jX c #F5CCB2",
"kX c #F8E6BC",
"lX c #F9E3A5",
"zX c #D3C480",
"xX c #90B0F4",
"cX c #EAB5C4",
"vX c #B0D0F1",
"bX c #8FD1E5",
"nX c #CFD6DC",
"mX c #F3CDD4",
"MX c #EFD2CF",
"NX c #FAE7C6",
"BX c #F8EBD6",
"VX c #F8EED6",
"CX c #C9F3F9",
"ZX c #FBF7E7",
"AX c #FFFFFD",
"SX c #FDFCF3",
"DX c #F8E8E8",
/* pixels */
"                                                                                          ",
"                                    + < < < < * X                                         ",
"                              * x c i.iXiXiXiXiXA c k #                                   ",
"                        + 4 t.0XMXMXhXNXNXNXNXNXhXBXMX0XV < X                             ",
"                      3 t.uXMXhXyX'.XXdXkXkXkXsX`.XXyXjXmX0XC 2                           ",
"                    k uXDXjX{.Q._.sXVXAXAXAXAXSXNXoX_.Q.{.pXmX0X3                         ",
"                  k iXDXyX{.Q._.dXZXAXAXAXAXAXAXAXZXdXW.m.C.4XmXwX3                       ",
"                k uXDXyXm.Q.T.sXZXAXAXAXAXAXAXAXAXAXVXXXR.m.c.B.mX5Xe                     ",
"              3 wXDXaXn.m.Y.W.gXAXAXAXAXAXAXAXAXAXAXSXsXR.F.m.h.B.mXa.1                   ",
"            < i.mXeXC.m.Y.Y._.gXZXAXAXAXAXAXAXAXAXAXVXsXW.F.G.M.d.V.pXe.*                 ",
"            V cXeXx.M.U.G.Y.R.oXlXkXNXSXAXAXAXZXVXkXgX XR.F.F.U.z.d.B.4Xz                 ",
"          3 wXpXx.M.!. XtX XR.W.XX.X'.dXhXhXkXsX.X.X`.R.T. XtXXXQ.v.d.B.y.*               ",
"          C cXV.h.z.M.`.dXVXtXR.E.E./././.E.E././.E.F.W.gXBXsX`.U.q.d.c.N.z               ",
"        + a.pXx.5.L t h <.tXVXoXF.E.H.H.H.H.H./.E.E.E.fXBX{.>.h i ~ 5.g.V.e.@             ",
"        3 wXV.h.^ X . . $ ^ OXkX'.H.H.F.H.H.F.D.H.H.oXNX[.h + . . @ ,.g.x.y.*             ",
"        v aXc.l.I . o . 5 N ^ oXkXXXJ.S.S.H.w.S./.@XNX{.v B & . . . :.g.g.N.y             ",
"      + y.eXh.z.:.. . 5 ;X<X&X/ tXVXdX|.2.Z.6.oXgXVXOXV =X<X$X& . . ,.j.g.C.~ X           ",
"      # s.f.h.z.,.X o #X<X2XxXD j P.{.n.I A.^ [.yXb.g -XxX2X<XB . # 1.l.g.#.! X           ",
"      # p.| g.l.0.2 o %X1XvXAXqX& 6 l 9 1.).:.0 l 6 8 nXAXxX<XN . e 0.l.g.' H X           ",
"      # p.r.j.l.z.j . #X1XbXCXbX*X>X$X4 Z.(.<.% %X*X-XvXCX9X1Xm + :.9.l.h.' F X           ",
"      $ e.} z.l.l.0.j 5 ,X7X8X8X6X3X8 j ).+XA.e N 1X6X8X8X7X%X& b q.l.l.x.[ F X           ",
"      @ ! } z.l.l.9.I.p.M $X,X>X=Xm f A.+X+X(.1.3 B ,X>X,X$XM L.U.q.l.l.x.[ F X           ",
"      @ / } k.l.5.K I |.}.b x 6 x :.Z.(.+X+X+X(.A.b 6 6 c t.zX^.h ^ h.l.k.[ F X           ",
"      $ ! } j.l.<.+ + 1.Z.<.}.rXI.).(.(.(.(.(.(.(.].P.rX[. .{.u.X * 4.l.k.[ F +           ",
"      $ ! { j.l.| $ . :.,.f '.b.,.].).Z.).+X].Z.(.K.>.I._.u 1.j . * 4.l.k.[ F +           ",
"      $ ! { j.l.5.~ X , g e D.:.q |.OXg I.dX1.g tXP.: ,.Z.; g $ $ ~ 5.l.k.[ F +           ",
"      @ ! } j.l.8.| + . + $ ^ h 0 !.[.; 1.sXj w |.b.= K K + + . - o.8.l.k.[ H +           ",
"      + ! } j.j.8.4.> e . . ; * + K I $ I Z.y $  .g X = - . X e y 3.8.z.j.' G X           ",
"      $ Q { h.h.8.5.v >.+ & O o . * - . , U + . > @ . . O O * y.I 3.5.9.h.{ J X           ",
"      $ Q { h.h.8.$.:.I.2 S 7 . . . . . X = . . . . . . Z Z e [.>.3.5.9.h.{ H X           ",
"      $ Q #.h.h.5.( 6.^.g rX7 . . % . . o . . o O & . . A wXj |.3.( 5.9.8.' J +           ",
"      $ Q ] 5.5.4.T 7.v.h |.x . 2 L.c . o o o o A p.+ . b P.h m.-.L $.8.5.] J +           ",
"      @ Q ] 3.3.] T -.3.K ^.:.2 b NXuX% o o . 7 nXfX3 3 u.b.L 7.&.L #.3.o.] J X           ",
"      + L ( ] ] ) P *.&._ 0.z./ >.lXiX< & D O 7 BXoXh  .9.2...*.&.J ( ] ` ` J X           ",
"      + L ( ` ` H L *.*._ 2.8.| 2.XXrX1 n rX3 x fXT.T 4.5.] X.*.&.s H ` ` ` L X           ",
"      @ L ( ` J r J *.*.( ~ ` @.*.q.P.; >. XH f |.7.%.@._ Q X.*.&.s w J ` _ J X           ",
"      $ L R ( r 0 J *.*.( Q L ..*.8.v.9  .Q.J y m.=.*.E L W ..*.&.p > t ` R J +           ",
"      $ J P J 0 > J *.*.( W d P +.7.5.J @.8...J 9.=.O.J d W ..*.&.s > t ( T J +           ",
"      @ J J d 0 0 J *.*.Y p t F T &.+.7.=.*.=.@.%.+.P s i p _ *.&.s > r T Y J X           ",
"      + J J s q 0 F %.*.L t r a F %.+.7.=.=.;.;.%.O.s a r r E *.+.p > w d T J X           ",
"      + J J s r q d ..%.G r r r p +.+.7.=.*.;.@.%.O.t r w w P %.` p > 0 p T J X           ",
"      @ J J d w * a E O.F w ; 0 a +.O.;.=.*.;.@.%.O.r > > w H O.` r * 0 p P J +           ",
"      $ J J a $ . w Y _ p * . X w +.O.;.=.*.;.@.+.X.- . X * H ` Y ; . + r L J +           ",
"      $ J G t . . + s ( r . . . $ J E @.=.*.;.o._ F X . . . s _ a X . . w L J +           ",
"      @ J P p . . . - J - . . . X r L ` +.*.+.` J 0 . . . . w H = . . . t T L +           ",
"      + P ` a . .     = +       . = J _ ..X..._ d $ .       $ *     . . t ..P +           ",
"      + L L = .                   X 0 T E R _ P -                     . * ~ L +           ",
"      + d 0 .                       X t T R P q                         . > z +           ",
"      X * O                           + i P 0                             X *             ",
"        O                               $ - +                               O             ",
"                                          .                                               ",
"                                                                                          ",
"                                                                                          "
};
