/* XPM */
static char *_0ba33a09cd94be6e2a83eaf3d7152efG1GXJSwPFr3Zm90I[] = {
/* columns rows colors chars-per-pixel */
"47 51 243 2 ",
"   c None",
".  c #010101",
"X  c #060905",
"o  c #090B07",
"O  c #060C0A",
"+  c #0A0D0A",
"@  c #060608",
"#  c #0B130D",
"$  c #0A1009",
"%  c #131B0E",
"&  c #10170E",
"*  c #091212",
"=  c #0D1C14",
"-  c #0B1A19",
";  c #141C12",
":  c #181A1A",
">  c #110F12",
",  c #0F221A",
"<  c #1B2316",
"1  c #13251C",
"2  c #1D251A",
"3  c #1D291A",
"4  c #142818",
"5  c #1B341B",
"6  c #18230E",
"7  c #222C1D",
"8  c #22331D",
"9  c #28361A",
"0  c #201F22",
"q  c #152926",
"w  c #17352B",
"e  c #1C3C2B",
"r  c #1B3624",
"t  c #1A3734",
"y  c #0F2121",
"u  c #292B2A",
"i  c #293522",
"p  c #273824",
"a  c #2A3A35",
"s  c #353736",
"d  c #31342F",
"f  c #2E441C",
"g  c #1E412C",
"h  c #1E4532",
"j  c #1E423D",
"k  c #2E4029",
"l  c #284627",
"z  c #34492B",
"x  c #37562A",
"c  c #234C35",
"v  c #224E3A",
"b  c #244633",
"n  c #374B34",
"m  c #25533A",
"M  c #2A5A3B",
"N  c #295435",
"B  c #3C5434",
"V  c #375A37",
"C  c #27502E",
"Z  c #33643C",
"A  c #386637",
"S  c #3C713B",
"D  c #366234",
"F  c #435C38",
"G  c #414D3A",
"H  c #4A673B",
"J  c #48733A",
"K  c #517536",
"L  c #516B32",
"P  c #1E4541",
"I  c #244A46",
"U  c #3A4844",
"Y  c #295B42",
"T  c #2A5A4B",
"R  c #285548",
"E  c #2C5D52",
"W  c #275551",
"Q  c #385C50",
"!  c #2E6847",
"~  c #316C4A",
"^  c #366A44",
"/  c #3A7342",
"(  c #3B7A44",
")  c #36734B",
"_  c #3D7C4C",
"`  c #367447",
"'  c #2F6757",
"]  c #336D65",
"[  c #36746B",
"{  c #387971",
"}  c #4B4C4C",
"|  c #444845",
" . c #4B554E",
".. c #4A5955",
"X. c #565857",
"o. c #504F50",
"O. c #605F5F",
"+. c #4A6943",
"@. c #556945",
"#. c #477845",
"$. c #527449",
"%. c #55794A",
"&. c #556557",
"*. c #5C7B53",
"=. c #4C7652",
"-. c #5E6663",
";. c #436969",
":. c #676867",
">. c #6E7B72",
",. c #647757",
"<. c #4D833B",
"1. c #548C3C",
"2. c #55953D",
"3. c #6E9F3C",
"4. c #3F8549",
"5. c #3D8376",
"6. c #3B8369",
"7. c #448346",
"8. c #42834D",
"9. c #4A8D4C",
"0. c #488948",
"q. c #4D934B",
"w. c #4D9548",
"e. c #529A4C",
"r. c #58954D",
"t. c #5B8453",
"y. c #4C9451",
"u. c #539D51",
"i. c #5A9657",
"p. c #4E8850",
"a. c #65984E",
"s. c #638B57",
"d. c #6A955B",
"f. c #718F51",
"g. c #5AA64C",
"h. c #55A553",
"j. c #5DAB53",
"k. c #5AA554",
"l. c #4FA154",
"z. c #66AB4A",
"x. c #6AB64E",
"c. c #66A957",
"v. c #74AB5A",
"b. c #64B554",
"n. c #6BBB55",
"m. c #69B859",
"M. c #74B759",
"N. c #75B94A",
"B. c #418B7E",
"V. c #40877A",
"C. c #6B9763",
"Z. c #6C8F69",
"A. c #75A46A",
"S. c #7BAD6D",
"D. c #75A666",
"F. c #69B663",
"G. c #7DB46E",
"H. c #7CBE64",
"J. c #78AD70",
"K. c #7FD74D",
"L. c #6DC356",
"P. c #74C659",
"I. c #74CC59",
"U. c #79CA5A",
"Y. c #75C755",
"T. c #7BD355",
"R. c #7BD359",
"E. c #77D157",
"W. c #6CC94E",
"Q. c #7CC861",
"!. c #878C7D",
"~. c #83BA74",
"^. c #81B474",
"/. c #8CBE6C",
"(. c #86BB52",
"). c #8DDC5C",
"_. c #85D758",
"`. c #84D257",
"'. c #95E65B",
"]. c #89D664",
"[. c #94DA68",
"{. c #86C176",
"}. c #8AC37B",
"|. c #8DCB7D",
" X c #8AC671",
".X c #92CA7D",
"XX c #9BDD74",
"oX c #94D67B",
"OX c #88C965",
"+X c #A8D973",
"@X c #9DE272",
"#X c #3F8782",
"$X c #428C83",
"%X c #46988B",
"&X c #499D94",
"*X c #469A92",
"=X c #5D9089",
"-X c #7C8B88",
";X c #4CA796",
":X c #50AF9C",
">X c #52B2A7",
",X c #5CCAB6",
"<X c #62D5C8",
"1X c #8D9791",
"2X c #95A59A",
"3X c #8EB490",
"4X c #A8B19D",
"5X c #92B0AD",
"6X c #A8B6AD",
"7X c #8AC282",
"8X c #92CE82",
"9X c #9BCE88",
"0X c #9CDD8B",
"qX c #97D587",
"wX c #88D885",
"eX c #A6DC8C",
"rX c #ACDE93",
"tX c #BBD298",
"yX c #9EE28D",
"uX c #9FE090",
"iX c #A7E389",
"pX c #A3E492",
"aX c #B5E49A",
"sX c #B6E78B",
"dX c #B9C7AD",
"fX c #BCE3A4",
"gX c #C4DBAD",
"hX c #C3D9B2",
"jX c #C1E6A8",
"kX c #CCECBA",
"lX c #D3F2BB",
"zX c #D6E5BD",
"xX c #B8C9C6",
"cX c #C8D6D3",
"vX c #D9DBDB",
"bX c #C5C7C7",
"nX c #D3E7D4",
"mX c #E6F7D9",
"MX c #DBE9E5",
"NX c #EAF6E7",
"BX c #FDFEFE",
"VX c #F4F9F6",
"CX c #ECF3ED",
/* pixels */
"                                                                                              ",
"                                      0X|.^.A.A.A.^.|.0X                                      ",
"                                  }.s.n < $ X X X + < n t.~.                                  ",
"                              |.$.< . + d } :.:.:.o.d + . & F G.                              ",
"                          pXC.7 . q ;.1X2X3X9XiXaXjXgX4X>.d . ; %.qX                          ",
"                        0X$.o * [ %X] Q 7.x.E.].kXNXmXlXaXgX1X0 . n }.                        ",
"                      0X+.. q *X] w c #.n.T.T.iXBXBXBXBXlX'.sXdX} . p }.                      ",
"                    pX$.. t *XP - h / j.I.T.T.[.mXBXBXBXVX@XK.@XhXO.. k 8X                    ",
"                    d.o q &XQ = w M q.b.R.[.T.T.XXnXNXVXlX)._.K.].gXX.. H yX                  ",
"                  }.2 * $X;.2Xa h / g.I.].XXR.].]._.[.[.).)._.T.U.iXhXs X d.                  ",
"                  +.. ] { a a , c 7.L.R.R.T.T.kXmX).K.K.).sX_.T.rXNXjX4X+ 8 .X                ",
"                ~.; y >X$X=X1 * h 7.I.R.R.R.T.iXaX_.T.XX[.T.T.T.].kXeXfXX.. s.                ",
"                %.. [ <X%X~ Z V b / I.E.E.R.R.T.T.T.T.XX[.[.[._.L.Y.I.XX4X@ k 0X              ",
"              qXp O >X[ = 4 / m.A.=.j.E.E.E.E.T.T.T.T.T.XXXXU.S 5 5 1.`.gXd + G.              ",
"              ~.# w %X* : a 1 #. X~.i.b.I.I.E.R.R.E.T._.XXP.l q U * 6 g.aX:.. t.              ",
"              d.. W ' q ..5X-Xa *..XQ.b.e.e.k.j.g.n.T.[./.l ..5X5Xn r D oX2X. B yX            ",
"              $.. [ R e >.MXMX..$ a.[.T.M.^ M Z v.T.).(.8 : 6XCXcX..h N H.dX> 8 8X            ",
"              B . #XR e 1XVXVX..=. .z.)._.s.1 %.).).N.B ,.N bXBXMX&.c Z c.fXu & {.            ",
"            yXk @ %XE e >.CXBXZ.F.J.5 <.L.<.= J Y.2.4 p.wX#.vXBXvX| V #.g.jXs o G.            ",
"            qX8 O %X' h U cXBXbX*.#.&.U r , 1 1 r s -.#.=.1XBXVX6Xa #.t.e.fX| X D.            ",
"            8X3 * %X] b r -XMXBXCXvXCXxXu 4 #.e ; 1XCXvXvXBXVXcX .N r.C.e.fX| X D.            ",
"            |.< * &X[ v e p -XcXMXMXxX:.q S P.7.r s 6XnXMXvX6X .r q.M.C.e.fX} . D.            ",
"            |.< - *X{ R j e p | &.X.d 4 S b.R.n.0.p u } -.X.d r S L.].A.q.fX} . D.            ",
"            }.< - *X5.T P w ^ %.J D J r.P.R.E.E.U.c.#.A A %.%.( g.I.].A.q.fX} . A.            ",
"            {.; - %X5.E I 1 Z c.M.M.U.R.v.v.R.R.v.M.U.P.H.Q.n.L.b.L.].J.q.fX} . C.            ",
"            {.; - %X5.E I w 0.c.i < a.OXi i OXM.< F OXH i v.R.E.j.m.].A.q.aXo.. C.            ",
"            ~.& - *XV.E I h u.$.. . 9 f.o X d.@.. 2 t.o . H R.E.u.b.U.v.w.aXo.. C.            ",
"            ~.# y *XB.E I c k.B . . X 9 . . z 7 . + < . . x U.I.y.b.n.a.9.aXX.. d.            ",
"            G.$ q &XB.E R M j.n . . . . . . X . . . . . . x I.n.9.j.j.q.0.aXX.. s.            ",
"            S.o q &XB.T R M j.n . . . . . . . . . . . . . F P.j.8.h.h.9.0.aXX.. t.            ",
"            A.X q &XB.T T M k.B . . . X # # . O = = O . . K n.u._ u.e.9.7.rXX.. *.            ",
"            C.. w &XB.Y Y m k.H . . % <.q.b 5 0.u.( M , X f.j.y._ y.q.8.7.rX:.. $.            ",
"            s.. t &X$XY Y m u.*.. . f.'.g.x N.E.h.Z c g 2 D.u.8.) 9.9.8.( eX:.. +.            ",
"            *.. j &X$Xm m v 9.d.@ : tX'.w.3._.j.C # X O n H.8._ ~ 8.8._ ( eX:.. F             ",
"            +.. I &X$Xv v v _ D.: : gX).z.+XP.S # . . . ,.F.) ) ~ _ _ ) ` 9X>.. B pX          ",
"          pXn . E *XB.v v v ` F.G s zXR.`.rXh.r . . . 2 S.q.~ ~ ! ) ) ~ ~ .X!.. k 0X          ",
"          qX7 . [ ;X5.v b N ^ h.#.!.sXW.].M.` # . . X J c.7.A S ) ~ ~ ~ ! G.1X. 3 8X          ",
"          S.+ X ;X:X' g X ; #.y.V tXI.n.b.4.4 . . . r h.h.D X $ J ) ! ~ ~ c.4X+ $ G.          ",
"        uXF . t <X%XY 1 . . H 0.&. Xh.l.` 4 X . X O N l.g.% . . 8 q.~ ~ ~ 9.tXs . +.pX        ",
"      yX$.X O &X,X! c + . . z 0.*.M.4.b # . . 3 d = Z h.K . . . X <.8.! ) 8.[.!.@ + s.        ",
"      }.; O [ <X6.m r . . . < <.@.r.4 X . . . V t.e / z.9 . . . . 8 u.~ ) y.z.+X@.. z eX      ",
"      S.o t B.%Xm c # . . . X K F z # X 2 . = / z.S g.1.X . X . . . x 9.! 9.q.z.K $ p qX      ",
"      d.. ] ;XY b = . . . # . f x 8 V # +.2 w ` j.x.x.8 . . F p . . X l / ^ 8.q.2.6 3 8X      ",
"      *.@ { Y 1 # . . . z t.X $ L V q.r ~ ^ h ^ j.I.x . . & ~.~.7 . . . 6 g v M 0.f ; .X      ",
"      +.. # X . . . . z |.|.3 . 9 r.h.Z ! ~ m ! e.J X . . +.    ^.k . . . . X O # o & ~.      ",
"    pXn . . . . . ; $.8X    t.. . F m.( M ~ ! e 5 + . . p |.      8X%.< . . . . . . + S.      ",
"    0XF ; ; < k $.^.        qXn . X B A 5 ! m O . . . < G.            }.s.B i ; ; ; 8 G.      ",
"      8X}.{.|.qX              7Xk . . o X e = . . . 7 S.                  eX8X}.~.~.|.yX      ",
"                                7XB X . . X . . o V }.                                        ",
"                                  qXt.3 # $.p k d.0X                                          ",
"                                      }.A.7X{.oX                                              "
};
