/* XPM */
static char *_eaca7f050ff41179cc22243e12d8f47Ke8D1s9i7eLL97rh[] = {
/* columns rows colors chars-per-pixel */
"49 50 222 2 ",
"   c None",
".  c #010001",
"X  c #090505",
"o  c #0C0A07",
"O  c #0A0409",
"+  c #0C0B0A",
"@  c #060708",
"#  c #110E0B",
"$  c #130B09",
"%  c #15110D",
"&  c #19140E",
"*  c #141313",
"=  c #1B1612",
"-  c #1D1913",
";  c #1C1B1B",
":  c #191718",
">  c #231C13",
",  c #251B17",
"<  c #301F18",
"1  c #2A2216",
"2  c #2B231B",
"3  c #292319",
"4  c #332C1B",
"5  c #3A261C",
"6  c #3A311F",
"7  c #36311C",
"8  c #251F20",
"9  c #242423",
"0  c #2A2523",
"q  c #2D2C2B",
"w  c #2B2928",
"e  c #3C2422",
"r  c #322C2A",
"t  c #352C28",
"y  c #3C3523",
"u  c #343333",
"i  c #3B3633",
"p  c #3C3C3B",
"a  c #44321E",
"s  c #412722",
"d  c #4B2B23",
"f  c #442D2A",
"g  c #483727",
"h  c #563628",
"j  c #453937",
"k  c #543E38",
"l  c #643C2A",
"z  c #683C2A",
"x  c #4D442B",
"c  c #534A2B",
"v  c #594C2C",
"b  c #47413A",
"n  c #52443D",
"m  c #5C473C",
"M  c #6C422C",
"N  c #64452A",
"B  c #75442D",
"V  c #7B492E",
"C  c #754B34",
"Z  c #695C33",
"A  c #665935",
"S  c #765A34",
"D  c #7D5B35",
"F  c #674D33",
"G  c #756837",
"H  c #7B653A",
"J  c #766639",
"K  c #543F40",
"L  c #464645",
"P  c #4A4443",
"I  c #4D4C4B",
"U  c #474748",
"Y  c #564847",
"T  c #535253",
"R  c #5B5B5B",
"E  c #5C5753",
"W  c #5F534F",
"Q  c #624E4F",
"!  c #665A57",
"~  c #725E56",
"^  c #6D635B",
"/  c #646153",
"(  c #75645A",
")  c #7B704C",
"_  c #646363",
"`  c #6C6B6A",
"'  c #6D6666",
"]  c #766A66",
"[  c #727272",
"{  c #7C7574",
"}  c #7A7878",
"|  c #767567",
" . c #874F35",
".. c #965837",
"X. c #8C5B38",
"o. c #836439",
"O. c #856C3D",
"+. c #99643B",
"@. c #88753E",
"#. c #AC653E",
"$. c #A4673D",
"%. c #B7683D",
"&. c #B5693D",
"*. c #BB703F",
"=. c #8C5E48",
"-. c #9A6943",
";. c #897943",
":. c #967842",
">. c #986F58",
",. c #8F704E",
"<. c #A87845",
"1. c #BE7A44",
"2. c #B87643",
"3. c #867267",
"4. c #847C7C",
"5. c #847877",
"6. c #917C72",
"7. c #9B7164",
"8. c #C17C45",
"9. c #9C8346",
"0. c #998A47",
"q. c #988948",
"w. c #96884E",
"e. c #A5874A",
"r. c #BC8D4D",
"t. c #B5864B",
"y. c #AC944D",
"u. c #A5944B",
"i. c #BA914D",
"p. c #AC9951",
"a. c #A79254",
"s. c #B89E51",
"d. c #B08A54",
"f. c #B9A555",
"g. c #81807C",
"h. c #9C8479",
"j. c #A28B77",
"k. c #C4884A",
"l. c #CA934D",
"z. c #CB9B51",
"x. c #C29952",
"c. c #C7A657",
"v. c #D8AA56",
"b. c #CAB45B",
"n. c #CEB95D",
"m. c #C2B25C",
"M. c #D8B85B",
"N. c #E3BB5D",
"B. c #C9B868",
"V. c #D3BF60",
"C. c #D6C05E",
"Z. c #DDC35F",
"A. c #E1C45F",
"S. c #DAC360",
"D. c #DFC964",
"F. c #E3C462",
"G. c #E4CB63",
"H. c #EDCC63",
"J. c #E5CA67",
"K. c #EED266",
"L. c #EFD769",
"P. c #F2D565",
"I. c #F3D966",
"U. c #F1D76A",
"Y. c #F4DB6A",
"T. c #ECDA79",
"R. c #F1DB74",
"E. c #F1DE7C",
"W. c #E0CC76",
"Q. c #8D8B8B",
"!. c #868484",
"~. c #938D8B",
"^. c #958784",
"/. c #9A9896",
"(. c #99908C",
"). c #AC9284",
"_. c #B29789",
"`. c #A59B95",
"'. c #A89C96",
"]. c #B49F95",
"[. c #AEA98C",
"{. c #B7A687",
"}. c #BDA599",
"|. c #AFAA99",
" X c #A9A8A6",
".X c #B7ACA5",
"XX c #BBB3AE",
"oX c #B7B4AF",
"OX c #BBBBB9",
"+X c #C9B691",
"@X c #C3B8AE",
"#X c #CAB9B2",
"$X c #D9D095",
"%X c #E9D987",
"&X c #F1DF87",
"*X c #EADC97",
"=X c #F3E186",
"-X c #F4E698",
";X c #CDC3BC",
":X c #D2CABD",
">X c #D6CFA5",
",X c #F3E9A2",
"<X c #F6EBAA",
"1X c #F4ECB9",
"2X c #FBF3BE",
"3X c #EAE2AA",
"4X c #C8C8C8",
"5X c #D3CDC8",
"6X c #D8D1C9",
"7X c #D8D8D8",
"8X c #E5D8CE",
"9X c #E5DDD6",
"0X c #F9F4C5",
"qX c #FAF7D9",
"wX c #FBF8D9",
"eX c #E9E9E9",
"rX c #E4E5E3",
"tX c #F2EEE6",
"yX c #FCFBEB",
"uX c #F3F3F3",
"iX c #FDFDF5",
"pX c #FEFEFE",
/* pixels */
"                                                                                                  ",
"                                                                                                  ",
"                                                                                                  ",
"                                                                                                  ",
"                                                & % % %                                           ",
"                                          % # @ . . X @ o + + % &                                 ",
"                                = * % # + . # - 4 x 5 X + * @ . . + %                             ",
"                              = / b . . + y ) p.B.%X-.& r ~.~._ 9 . @ %                           ",
"                              0 >Xa.- . + 2 6 a v w.c.S - ] 5X~.q . . + % % % % & &               ",
"                          % X ; @X&X@.& . . . : : % c f.A = j 0 * . . . . . . . @ @ %             ",
"                        % @ @ 2 ^ 3XR.@.= . ;  XOXu . g p.7 q  X X} p @ . * b r @ @ @ #           ",
"                      % . + R +XH 3.W.L.q.> : [ OXR * + H ;.- ^.8X'.P @ + ` 5Xh.0 ; * @ #         ",
"                    & X @ _ eX2X*Xj.-.M.U.y.1 @ : R Q.: N b.4 r n = . . @ 9 L ! b = i % O %       ",
"                    + . T rXwX,X0X-Xc.c.K.K.o.# . 9 ~.x e.K.Z * T I 0 * . . . : j r g g + +       ",
"                  % . q 5XyX=XL.R.U.P.P.G.e.h $ > F u.b.K.Y.0.= (.uX5XQ.q . i  X:X3.3 H 2 O #     ",
"                - X * /.pXwXR.P.P.P.P.P.F.y.J h V z.H.P.P.I.f.> ^ #X^.P : . u g..Xj.t A S $ +     ",
"                % . T uXpXwXE.P.P.P.P.P.Z.O.6 2 M l.H.P.P.P.n.2 r t # . . . . . ; i , y e.1 X #   ",
"              > X :  XpXiX,XU.P.P.P.P.P.A.c.H # > o.s.H.P.P.S.4 i 4.I ; @ . . * u ] W 3 y.N X o   ",
"              = . p eXpXqXT.U.P.P.P.K.b.J.Y.:.% @ % > S M.P.S.4 Y tXtXoXL X ; Q.9X8X6.3 9.+.& @   ",
"              % @ !.pXpXwX1X2XR.P.G.G ) %Xb.4 . . . . & D F.S.4 Y #X`.! 9 . : T `..Xh.2 @.2.< . # ",
"              o : 4XpXpXpXpXyX=XP.q.b $XW.v X . . . . . 5 z.n.1 r j = X . . . . * i P = O.1.d . # ",
"            > . u rXpXpXyXiXqXR.Z.Z {.T.G # . . . . . . > i.f.- P E 9 @ . . . @ 9 T W - @.8.l X @ ",
"            = . L uXpXpX1X0X<XU.C.B.=Xu.= . . . @ . . . < c.q.& ~.yX5X4.0 . 9 !.5X8Xh.2 :.2.M X . ",
"            = . T uXpXpX,X-XE.P.P.Y.m.4 . . @ I /._ * . x D.Z , ].8X@X5.q . ; !.;X+X3.2 e...M $ . ",
"            & . R iXpXiX-XY.U.P.I.D.c . . . q 7XpXuXT # 0.V.4 2 ~ Y 0 + . . . + i ( n 6 t.B l $ . ",
"            % . R iXpXiX-XI.I.I.I.@.# . . . p eXpXpX_ c G.q.* i w X . . . . . : u j * A <.l h + . ",
"            % . T uXpXiX-XI.U.Y.C.7 . . . . * } 4X/.A n.n.4 r XX4X} 9 @ . q g.OX;X6.3 :.X.h g X . ",
"            = . p eXpXyX=XI.I.Y.p.% + < , > 1 4 c ;.C.L.G = ] 9XtX6X{ : . u oX6X}.n g t.z d 5 . @ ",
"            > . 9 :XwX0XR.I.I.Y.0.+ &  .$.s.b.n.S.P.Y.f.- 8 ] 3.! u = @ . . 9 ^ ( 3 @.$.d h < . + ",
"              + * [.&XR.P.P.P.I.p.& = ..v.P.P.P.P.P.J.v . @ * # . . . @ : r I j = c r.V s k * . # ",
"              # . | &XP.P.P.P.P.S.y % +.H.P.P.P.P.P.c.> . . . . . . @ I  X;X].b y t.$.h g g @ X   ",
"              & . p $XP.P.P.P.P.P.u.1 o.P.P.P.P.P.M.e.& . . . . . . . u '.).n 6 <.2.B s m 0 . o   ",
"              > @ : [.R.P.P.P.P.P.K.u.@.J.P.P.P.P.c.<.> . . . . . . . . , t g e.1...d f ! * X     ",
"                % . R *XP.P.P.P.P.P.P.G.P.P.P.P.P.v.2.d X . . . . . . X > Z t.8.$.h e ~ p . o     ",
"                & . ; |.E.P.P.P.P.P.P.P.P.I.I.I.P.H.l.<.g % X . o % 4 A d.k.*.#.z 5 Y ' * X %     ",
"                  + . I >XF.P.P.P.P.P.P.P.I.I.I.I.P.H.N.M.e.G J H 9.i.k.2.%.#.B e f 5.q . +       ",
"                  & @ # g.+Xc.H.P.P.P.P.P.P.I.I.P.P.P.P.P.P.N.z.k.1.*.%.%.$.z e f { L . o         ",
"                    % . ; /.{.d.v.H.P.P.P.P.P.P.P.P.P.P.P.K.v.l.1.%.%.#...h e f 5.T @ @ %         ",
"                      # . w `._.>.r.M.H.P.P.P.P.P.P.P.P.P.P.P.v.1.#...B d e j 5.T + . #           ",
"                        o . 9 ~.].>.-.r.v.N.H.P.P.P.P.P.H.M.r.+. .z d e e Q ^.L @ . #             ",
"                          + . : ` .X).>.-.<.r.x.c.y.9.:.D N h d s e e Y 5.4.u . @ %               ",
"                            % X @ p /.@X_.7.=.=.C s e e e e e e f Y 5.Q.I : . o %                 ",
"                              % + . : L Q.XX@X}.^.Q k K Y Q ] 4.^.{ U : . . +                     ",
"                                  % X . + 9 U [ Q.~.~.~.Q.4.` U 9 + . . + %                       ",
"                                      # o . . . + * * * * + . . . + # &                           ",
"                                          & % # + o X o + + # % &                                 ",
"                                                                                                  ",
"                                                                                                  ",
"                                                                                                  ",
"                                                                                                  "
};
