/* XPM */
static char *da2bca889f78408a9d910937ba66186cQUdqFBdX1Oq6na11[] = {
/* columns rows colors chars-per-pixel */
"49 50 222 2 ",
"   c None",
".  c #010001",
"X  c #090505",
"o  c #0C0A07",
"O  c #0A0409",
"+  c #0C0B0A",
"@  c #060708",
"#  c #110E0B",
"$  c #130B09",
"%  c #15110D",
"&  c #19140E",
"*  c #141313",
"=  c #1B1612",
"-  c #1D1913",
";  c #1C1B1B",
":  c #191718",
">  c #231C13",
",  c #251B17",
"<  c #301F18",
"1  c #2A2216",
"2  c #2B231B",
"3  c #292319",
"4  c #332C1B",
"5  c #3A261C",
"6  c #3A311F",
"7  c #36311C",
"8  c #251F20",
"9  c #242423",
"0  c #2A2523",
"q  c #2D2C2B",
"w  c #2B2928",
"e  c #3C2422",
"r  c #322C2A",
"t  c #352C28",
"y  c #3C3523",
"u  c #343333",
"i  c #3B3633",
"p  c #3C3C3B",
"a  c #44321E",
"s  c #412722",
"d  c #4B2B23",
"f  c #442D2A",
"g  c #483727",
"h  c #563628",
"j  c #453937",
"k  c #543E38",
"l  c #643C2A",
"z  c #683C2A",
"x  c #4D442B",
"c  c #534A2B",
"v  c #594C2C",
"b  c #47413A",
"n  c #52443D",
"m  c #5C473C",
"M  c #6C422C",
"N  c #64452A",
"B  c #75442D",
"V  c #7B492E",
"C  c #754B34",
"Z  c #695C33",
"A  c #665935",
"S  c #765A34",
"D  c #7D5B35",
"F  c #674D33",
"G  c #756837",
"H  c #7B653A",
"J  c #766639",
"K  c #543F40",
"L  c #464645",
"P  c #4A4443",
"I  c #4D4C4B",
"U  c #474748",
"Y  c #564847",
"T  c #535253",
"R  c #5B5B5B",
"E  c #5C5753",
"W  c #5F534F",
"Q  c #624E4F",
"!  c #665A57",
"~  c #725E56",
"^  c #6D635B",
"/  c #646153",
"(  c #75645A",
")  c #7B704C",
"_  c #646363",
"`  c #6C6B6A",
"'  c #6D6666",
"]  c #766A66",
"[  c #727272",
"{  c #7C7574",
"}  c #7A7878",
"|  c #767567",
" . c #874F35",
".. c #965837",
"X. c #8C5B38",
"o. c #836439",
"O. c #856C3D",
"+. c #99643B",
"@. c #88753E",
"#. c #AC653E",
"$. c #A4673D",
"%. c #B7683D",
"&. c #B5693D",
"*. c #BB703F",
"=. c #8C5E48",
"-. c #9A6943",
";. c #897943",
":. c #967842",
">. c #986F58",
",. c #8F704E",
"<. c #A87845",
"1. c #BE7A44",
"2. c #B87643",
"3. c #867267",
"4. c #847C7C",
"5. c #847877",
"6. c #917C72",
"7. c #9B7164",
"8. c #C17C45",
"9. c #9C8346",
"0. c #998A47",
"q. c #988948",
"w. c #96884E",
"e. c #A5874A",
"r. c #BC8D4D",
"t. c #B5864B",
"y. c #AC944D",
"u. c #A5944B",
"i. c #BA914D",
"p. c #AC9951",
"a. c #A79254",
"s. c #B89E51",
"d. c #B08A54",
"f. c #B9A555",
"g. c #81807C",
"h. c #9C8479",
"j. c #A28B77",
"k. c #C4884A",
"l. c #CA934D",
"z. c #CB9B51",
"x. c #C29952",
"c. c #C7A657",
"v. c #D8AA56",
"b. c #CAB45B",
"n. c #CEB95D",
"m. c #C2B25C",
"M. c #D8B85B",
"N. c #E3BB5D",
"B. c #C9B868",
"V. c #D3BF60",
"C. c #D6C05E",
"Z. c #DDC35F",
"A. c #E1C45F",
"S. c #DAC360",
"D. c #DFC964",
"F. c #E3C462",
"G. c #E4CB63",
"H. c #EDCC63",
"J. c #E5CA67",
"K. c #EED266",
"L. c #EFD769",
"P. c #F2D565",
"I. c #F3D966",
"U. c #F1D76A",
"Y. c #F4DB6A",
"T. c #ECDA79",
"R. c #F1DB74",
"E. c #F1DE7C",
"W. c #E0CC76",
"Q. c #8D8B8B",
"!. c #868484",
"~. c #938D8B",
"^. c #958784",
"/. c #9A9896",
"(. c #99908C",
"). c #AC9284",
"_. c #B29789",
"`. c #A59B95",
"'. c #A89C96",
"]. c #B49F95",
"[. c #AEA98C",
"{. c #B7A687",
"}. c #BDA599",
"|. c #AFAA99",
" X c #A9A8A6",
".X c #B7ACA5",
"XX c #BBB3AE",
"oX c #B7B4AF",
"OX c #BBBBB9",
"+X c #C9B691",
"@X c #C3B8AE",
"#X c #CAB9B2",
"$X c #D9D095",
"%X c #E9D987",
"&X c #F1DF87",
"*X c #EADC97",
"=X c #F3E186",
"-X c #F4E698",
";X c #CDC3BC",
":X c #D2CABD",
">X c #D6CFA5",
",X c #F3E9A2",
"<X c #F6EBAA",
"1X c #F4ECB9",
"2X c #FBF3BE",
"3X c #EAE2AA",
"4X c #C8C8C8",
"5X c #D3CDC8",
"6X c #D8D1C9",
"7X c #D8D8D8",
"8X c #E5D8CE",
"9X c #E5DDD6",
"0X c #F9F4C5",
"qX c #FAF7D9",
"wX c #FBF8D9",
"eX c #E9E9E9",
"rX c #E4E5E3",
"tX c #F2EEE6",
"yX c #FCFBEB",
"uX c #F3F3F3",
"iX c #FDFDF5",
"pX c #FEFEFE",
/* pixels */
"                                                                                                  ",
"                                                                                                  ",
"                                                                                                  ",
"                                                                                                  ",
"                                & % # + + o X o + # % &                                           ",
"                          & # + . . . + * * * * + . . . o #                                       ",
"                      % + . . + 9 U ` 4.Q.~.~.~.Q.[ U 9 + . X %                                   ",
"                    + . . : U { ^.4.] Q Y K k Q ^.}.@XXXQ.L * . + %                               ",
"                % o . * I Q.5.Y f e e e e e e s C =.=.7._.@X/.p + X %                             ",
"              % X . u 4.5.Y e e s d h N D :.9.y.c.x.r.<.-.>.)..X` : . +                           ",
"            # . + L ^.Q e e d z  .+.r.M.H.P.P.P.P.P.H.N.v.r.-.>.].~.9 . o                         ",
"          # . + T 5.j e d B ..&.1.v.P.P.P.P.P.P.P.P.P.P.P.H.M.r.>._.`.w . #                       ",
"        % X + T 5.f e h ..&.%.%.8.l.v.K.P.P.P.P.P.P.P.P.P.P.P.H.v.d.{./.; . %                     ",
"        o . L { f e z $.%.%.*.1.k.z.N.P.P.P.P.P.P.I.I.P.P.P.P.P.P.H.c.+Xg.* @ &                   ",
"      + . q 5.f e B #.%.2.k.i.9.O.J G e.M.N.H.P.I.I.I.I.P.P.P.P.P.P.H.F.>XI . +                   ",
"    % X * ' Y 5 z #.*.k.d.A 4 % o . X % g <.l.H.P.I.I.I.P.P.P.P.P.P.P.P.E.|.; . &                 ",
"    o . j ^ e h $.8.t.Z > X . . . . . . X d 2.v.P.P.P.P.P.G.P.P.P.P.P.P.P.*XR . %                 ",
"    X * ! f d ..1.e.g t , . . . . . . . . > <.c.P.P.P.P.J.@.u.K.P.P.P.P.P.R.[.* X >               ",
"  o . 0 m s B 2.<.6 n ).'.u . . . . . . . & e.M.P.P.P.P.P.o.1 u.P.P.P.P.P.P.$Xp . &               ",
"  X X g g h $.t.y b ].;X XI X . . . . . . > c.P.P.P.P.P.H.+.% y S.P.P.P.P.P.&X| . #               ",
"# . * k s V r.c = j I r * @ . . . + * + . v J.P.P.P.P.P.v...= & p.I.P.P.P.R.&X[.* +               ",
"+ . < h d $.@.3 ( ^ 9 . . @ = u ! 3.] 8 > f.Y.P.S.n.b.s.$. .& + 0.Y.I.P.R.0XqX:X9 . >             ",
"+ . 5 d z t.g n }.6XoXu . * { 6XtX9X] = G L.C.;.c 4 1 > , < + % p.Y.I.I.=XyXpXeXp . =             ",
". X g h X.:.3 6.;XOXg.q . @ 9 } 4XXXr 4 n.n.A /.4X} * . . . . 7 C.Y.I.I.-XiXpXuXT . %             ",
". + h l <.A * j u : . . . . . X w j * q.G.c _ pXpXeXp . . . # @.I.I.I.I.-XiXpXpXR . %             ",
". $ l B t.6 n ( i + . . . + 0 Y ~ 2 4 V.0.# T uXpX7Xq . . . c D.I.P.U.Y.-XiXpXpXR . &             ",
". $ M +.e.2 3.+X;X!.; . q 5.@X8X]., Z D.x . * _ /.I + . . 4 m.Y.P.P.E.-X,XpXpXuXT . =             ",
". o M 2.:.2 h.8X5X!.9 . w 4.5XyX~.& 0.c.1 . . . + . . . = u.=XB.C.U.<X0X1XpXpXuXL . -             ",
"+ X l 8.@.- W T 9 + . . . + 9 E P - f.i., . . . . . . # G T.{.Z Z.R.qXiXyXpXpXrXu . >             ",
"# . d 1.O.= P i * . . . . X = j r 1 n.z.5 . . . . . X v W.$Xb q.P.=XyXpXpXpXpX4X: o               ",
"# . < 2.@.2 6..X`.T * . 9 ! `.#XY 4 S.F.D & . . . . 4 b.%X) G G.P.R.2X1XqXpXpX!.@ %               ",
"  @ & +.9.3 6.8X9XQ.; X L oXtXtXY 4 S.P.M.S > % X % :.Y.J.b.K.P.P.P.L.T.qXpXeXp . =               ",
"  o X N y.3 W ] u * . . @ ; I 4.i 4 S.P.P.H.s.o., # H c.A.P.P.P.P.P.U.,XiXpX X* X >               ",
"  # X 1 y.y , i ; . . . . . # t r 2 n.P.P.P.H.l.M 2 6 O.Z.P.P.P.P.P.E.wXpXuXT . %                 ",
"    + $ S A t j..Xg.u . * P ^.#X^ > f.I.P.P.H.z.V h J y.A.P.P.P.P.P.R.qXpX/.* X -                 ",
"    # O 2 H 3 3.:X Xi . q Q.5XuX(.= 0.Y.K.b.u.F > $ h e.G.P.P.U.R.L.=XyX5Xq . %                   ",
"      + o g g r j * . . . * w I T * Z K.e.b ~.9 . # o.K.K.c.c.-X0X,XwXrXT . +                     ",
"      % @ % i = b ! P 9 + . . = n r 4 b.N : Q.R * X 2 y.U.M.-.j.*X2XrX_ + X &                     ",
"        # @ * ; 0 h.5X` + + P '.8X^.- ;.H + * R OX[ * > q.L.W.3.O.+XR + . %                       ",
"          # @ + X r b * . + p }  X Xq 7 p.g . u OX X; . = @.R.3X^ 2 + X %                         ",
"            % @ @ . . . . . . . * 0 j = A f.c % * * . . . & @.&X@X; X %                           ",
"              & & % % % % + . . q ~.5X] - S c.w.v a 6 2 + . - a.>Xw                               ",
"                          % X . 9 _ ~.~.r & -.%XB.p.) y + . . b / =                               ",
"                            % + . . @ * + X 5 x 4 - # . + # % * =                                 ",
"                                & % + + o X X . . + % %                                           ",
"                                          % % % &                                                 ",
"                                                                                                  ",
"                                                                                                  ",
"                                                                                                  ",
"                                                                                                  "
};
