/* XPM */
static char *e3ac46af37b145fdd9d18e06a925a002JYr6JJ2w9NW2ClYz[] = {
/* columns rows colors chars-per-pixel */
"48 50 132 2 ",
"   c None",
".  c #020204",
"X  c #080707",
"o  c #0B0A06",
"O  c #040409",
"+  c #0B0B09",
"@  c #110F0E",
"#  c #131107",
"$  c #181606",
"%  c #1D1A07",
"&  c #13130C",
"*  c #191709",
"=  c #1E1B09",
"-  c #131315",
";  c #201D07",
":  c #201E09",
">  c #2F2B07",
",  c #26230A",
"<  c #28260A",
"1  c #2D2A0A",
"2  c #312D0A",
"3  c #373208",
"4  c #3A360C",
"5  c #3B380C",
"6  c #232315",
"7  c #292917",
"8  c #2D2C19",
"9  c #32311C",
"0  c #202024",
"q  c #27262B",
"w  c #433E0D",
"e  c #45410C",
"r  c #48430D",
"t  c #534D0E",
"y  c #57510C",
"u  c #5B560E",
"i  c #5F5A0F",
"p  c #625C0E",
"a  c #6A640E",
"s  c #70680F",
"d  c #7B740F",
"f  c #786F10",
"g  c #7A7210",
"h  c #484723",
"j  c #494925",
"k  c #4B4929",
"l  c #54532C",
"z  c #6D6A24",
"x  c #706C25",
"c  c #666635",
"v  c #6F6F39",
"b  c #706F39",
"n  c #75743C",
"m  c #7B7A3E",
"M  c #4A4A4D",
"N  c #525054",
"B  c #57575A",
"V  c #656568",
"C  c #6A6A6E",
"Z  c #877F0D",
"A  c #877F12",
"S  c #887E10",
"D  c #8A820F",
"F  c #9C920F",
"G  c #8A8111",
"H  c #8C851A",
"J  c #958C11",
"K  c #998F11",
"L  c #9E9412",
"P  c #A0960F",
"I  c #A4990F",
"U  c #AA9F0C",
"Y  c #A19713",
"T  c #A59B11",
"R  c #B2A611",
"E  c #BDB210",
"W  c #CABD0F",
"Q  c #C6BA11",
"!  c #C9BC10",
"~  c #D2C50F",
"^  c #D6C80B",
"/  c #DCCD0E",
"(  c #DDD00E",
")  c #D1C411",
"_  c #D6C910",
"`  c #D9CB10",
"'  c #DFD311",
"]  c #E4D50D",
"[  c #ECDC0C",
"{  c #FFEC01",
"}  c #F5E40A",
"|  c #FCEC0B",
" . c #FFF003",
".. c #FDEE14",
"X. c #FDEF1C",
"o. c #F6EB2C",
"O. c #FCF024",
"+. c #FDF22A",
"@. c #FDF333",
"#. c #FEF63D",
"$. c #868643",
"%. c #8E8D47",
"&. c #99974E",
"*. c #9A984C",
"=. c #ADAC52",
"-. c #B3B257",
";. c #B5B459",
":. c #DED94A",
">. c #FCF540",
",. c #FDF74D",
"<. c #FDF752",
"1. c #FDF855",
"2. c #FCF75A",
"3. c #FDF85B",
"4. c #D6D566",
"5. c #DBD966",
"6. c #D8D76A",
"7. c #DDDC69",
"8. c #E0DE6A",
"9. c #E4E36C",
"0. c #FEFA62",
"q. c #FEFB6C",
"w. c #FAF772",
"e. c #FEFC72",
"r. c #818183",
"t. c #949595",
"y. c #ABACAC",
"u. c #B7B7B7",
"i. c #CCCCCB",
"p. c gray93",
"a. c #F3F4F3",
"s. c white",
/* pixels */
"                                                                                                ",
"                                                                                                ",
"                                        . . . . . . . . . O                                     ",
"                                O . + 6 h z H L T T L Z a w = X .                               ",
"                            O . 6 c =.:.o... . . . . . .{ } / T u % . O                         ",
"                          . 7 $.5.2.+.| { { { { { { { { { { {  .| ~ f : .                       ",
"                      . & b 5.q.#.| { { { { { { { { { { { { { { { { { ) p o O                   ",
"                    . 8 -.w.0.+.{ { { { { { { { { { { { { { { { { { { { } Y , .                 ",
"                  . j 4.e.3.X.{ { { { { { { { { { { { { { { { { { { { { { { ! 4 .               ",
"                . l 9.e.3.X.{ { { { { { { { } S R }  .{ { { { { { { { { { { { _ w .             ",
"              . k 9.e.3.X.{ { { { { { { { { ] w # r T [ { { { { { { { { { { { { ` 4 O           ",
"            . 9 4.e.q.+.{ { { { { { { { { { | ' 4 O @ 4 F ] { { { { { { { { { { { Q , .         ",
"            & ;.e.e.#.{ { { { { { { { { { { { [ 1 V y.M @ > D / | { { { { { { { { { Y o         ",
"          . n e.e.3...{ { { { { { { { { { { { [ > C s.a.u.B - 1 Q { { { { { { { { { } i .       ",
"        . 8 7.e.q.@.{ { { { { { { { { { { { { | p 0 i.s.s.p.M % ~ { { { { { { { { {  .) =       ",
"        . %.e.e.3.| { { { { { { { { { { { { { { ) 1 q r.t.N & G | { { { { { { { { { ( G * .     ",
"        7 8.e.q.@.{ { { { { { { { { { { { { { { { ! y = $ 3 K } { { { { { { { { ) d < . .       ",
"      . v e.e.0...{ { { { { { { { { { { { { { { { { } / ^ [ { { { { { { { | W s : . O           ",
"      + ;.e.e.,.{ { { { { { { { { { { { { { { { { { { { { { { { { { { } E p * O +               ",
"      7 9.e.e.@.{ { { { { { { { { { { { { { { { { { { { { { { { { } R t # .                     ",
"    . l w.e.q.O.{ { { { { { { { { { { { { { { { { { { { { { { [ T r + O                         ",
"    . m e.e.0...{ { { { { { { { { { { { { { { { { { { { { ] K 5 o .                             ",
"    . *.e.e.3.| { { { { { { { { { { { { { { { { { { { / D 2 X O                                 ",
"    . =.e.e.1.| { { { { { { { { { { { { { { { { | ~ g < . .                                     ",
"    o ;.e.e.<.{ { { { { { { { { { { { { { { { _ a = . .                                         ",
"    o ;.e.e.<.{ { { { { { { { { { { { { { { { ~ a * . .                                         ",
"    . =.e.e.1.| { { { { { { { { { { { { { { { { | ) g , . O                                     ",
"    . &.e.e.3.| { { { { { { { { { { { { { { { { { { { / A 1 . .                                 ",
"    . m e.e.0...{ { { { { { { { { { { { { { { { { { { { { ] J 4 o O                             ",
"    . l w.e.q.O.{ { { { { { { { { { { { { { { { { { { { { { { [ I e o O                         ",
"      7 9.e.q.@.{ { { { { { { { { { { { { { { { { { { { { { { { { } R t # O                     ",
"      + ;.e.e.,.{ { { { { { { { { { { { { { { { { { { { { { { { { {  .} E i $ . +               ",
"      . v e.e.0...{ { { { { { { { { { { { { { { { { { { { { { { { { { { { | ! a = . O           ",
"        7 7.e.q.@.{ { { { { { { { { { { { { { { { { { { { { { { { { { { { { { | ~ d < . .       ",
"        . %.e.e.3.| { { { { { { { { { { { { { { { { { { { { { { { { { { { { { { { { / A * .     ",
"        . 8 8.e.q.@.{ { { { { { { { { { { { { { { { { { { { { { { { { { { { { { { {  .) = .     ",
"          . n e.e.3...{ { { { { { { { { { { { { { { { { { { { { { { { { { { { { { { } p .       ",
"            & ;.e.q.>.{ { { { { { { { { { { { { { { { { { { { { { { { { { { { { { { T +         ",
"            . 9 6.e.q.+.{ { { { { { { { { { { { { { { { { { { { { { { { { { { { { ! , .         ",
"              . k 9.e.0.X.{ { { { { { { { { { { { { { { { { { { { { { { { { { { ` 4 .           ",
"                . l 9.e.3.X.{ { { { { { { { { { { { { { { { { { { { { { { { { ` w .             ",
"                  . k 4.e.3.X.{ { { { { { { { { { { { { { { { { { { { { { { ! 4 .               ",
"                    . 9 -.w.0.O.{ { { { { { { { { { { { { { { { { { { { } T , .                 ",
"                      . & n 7.q.#.| { { { { { { { { { { { { { { { { { ~ p + O                   ",
"                          . 7 $.5.2.+.| { { { { { { { { { { {  .| ) g : .                       ",
"                            . . 6 c =.:.o... . . . . . .{ } / T u = . O                         ",
"                                . . + 6 j x H P U U F G a e ; . .                               ",
"                                        . . . . . . . . . .                                     ",
"                                                                                                ",
"                                                                                                "
};
