/* XPM */
static char *e884de8d06944f7bfcc266fa2807260egF0rW5bjYlIPhc6r[] = {
/* columns rows colors chars-per-pixel */
"50 49 229 2 ",
"   c None",
".  c #010101",
"X  c #0A0603",
"o  c #0D0904",
"O  c #0C0B0B",
"+  c #120C05",
"@  c #1B0C06",
"#  c #130D0B",
"$  c #130604",
"%  c #151107",
"&  c #1B140A",
"*  c #191309",
"=  c #141313",
"-  c #1C1C1C",
";  c #1A1616",
":  c #110F11",
">  c #231409",
",  c #241B0C",
"<  c #2D1B0E",
"1  c #2B130B",
"2  c #281C13",
"3  c #231C1B",
"4  c #261C16",
"5  c #3D1D1C",
"6  c #3E1E10",
"7  c #29150B",
"8  c #2B230F",
"9  c #2C2512",
"0  c #292217",
"q  c #342B12",
"w  c #362816",
"e  c #3D3316",
"r  c #222222",
"t  c #2C2524",
"y  c #2C2B2B",
"u  c #332926",
"i  c #3D342A",
"p  c #343434",
"a  c #3B3432",
"s  c #3C3B3A",
"d  c #411E1A",
"f  c #44211A",
"g  c #4C2619",
"h  c #542A1C",
"j  c #47361A",
"k  c #57351B",
"l  c #612F1F",
"z  c #66331E",
"x  c #492B28",
"c  c #493A25",
"v  c #5A3726",
"b  c #433A35",
"n  c #483B38",
"m  c #573C3D",
"M  c #5D2E20",
"N  c #6E3B21",
"B  c #743B23",
"V  c #773B23",
"C  c #4F441D",
"Z  c #574A1E",
"A  c #67411D",
"S  c #4B412A",
"D  c #584923",
"F  c #48413C",
"G  c #54413A",
"H  c #5F4438",
"J  c #6D4727",
"K  c #7C4326",
"L  c #6B5928",
"P  c #7B5928",
"I  c #6E5E34",
"U  c #79672A",
"Y  c #7D6A36",
"T  c #5A3F40",
"R  c #464444",
"E  c #4E4D4D",
"W  c #4B4745",
"Q  c #594846",
"!  c #545252",
"~  c #5B5B5A",
"^  c #5D5B55",
"/  c #58524F",
"(  c #61524E",
")  c #675955",
"_  c #735E58",
"`  c #654D4E",
"'  c #6A6456",
"]  c #776259",
"[  c #7D7454",
"{  c #676565",
"}  c #786A66",
"|  c #787675",
" . c #777665",
".. c #864827",
"X. c #855B2A",
"o. c #9B532B",
"O. c #935234",
"+. c #A5582C",
"@. c #B25E2F",
"#. c #A65F35",
"$. c #85692C",
"%. c #9E652F",
"&. c #8C732E",
"*. c #886732",
"=. c #966B35",
"-. c #897931",
";. c #997834",
":. c #92742F",
">. c #AB642F",
",. c #BD612F",
"<. c #AB6C37",
"1. c #B76230",
"2. c #AF7A39",
"3. c #B57536",
"4. c #C4642D",
"5. c #C76B2F",
"6. c #CA7533",
"7. c #C77835",
"8. c #965B46",
"9. c #937157",
"0. c #A56F4D",
"q. c #8A7469",
"w. c #877978",
"e. c #967C71",
"r. c #8F6F60",
"t. c #A37061",
"y. c #9B8837",
"u. c #A78538",
"i. c #B8853D",
"p. c #A8943C",
"a. c #B5903A",
"s. c #C8893C",
"d. c #C3953E",
"f. c #D4963C",
"g. c #D18738",
"h. c #D5A33F",
"j. c #B58B45",
"k. c #B29841",
"l. c #A69247",
"z. c #BAA343",
"x. c #83817D",
"c. c #9F8075",
"v. c #A4887A",
"b. c #A78A6E",
"n. c #9A8A55",
"m. c #C69C41",
"M. c #CD9441",
"N. c #CAA844",
"B. c #DAAB45",
"V. c #CDB449",
"C. c #D6B747",
"Z. c #CDB256",
"A. c #E3AC43",
"S. c #E7B947",
"D. c #CCBD7E",
"F. c #DCC24A",
"G. c #D6C04A",
"H. c #E3C449",
"J. c #ECC44A",
"K. c #EBCB4C",
"L. c #E2CA4D",
"P. c #F3CC4B",
"I. c #EFD14D",
"U. c #F7D64C",
"Y. c #F8D64C",
"T. c #F7D94C",
"R. c #F9DA4D",
"E. c #E6CB55",
"W. c #F4D550",
"Q. c #F5D851",
"!. c #F5DB5D",
"~. c #FADB52",
"^. c #EFD95E",
"/. c #F8E056",
"(. c #F3DD6D",
"). c #F5DC63",
"_. c #EBD771",
"`. c #F4E17B",
"'. c #F6E275",
"]. c #F5E06C",
"[. c #867F80",
"{. c #8A8887",
"}. c #948D8C",
"|. c #988B85",
" X c #98918C",
".X c #9A9795",
"XX c #8F9090",
"oX c #B89587",
"OX c #A89C97",
"+X c #B69F93",
"@X c #A88A82",
"#X c #B2AB87",
"$X c #B4A898",
"%X c #A9A8A6",
"&X c #BDACA5",
"*X c #BCB8B5",
"=X c #B9B0A7",
"-X c #C7A898",
";X c #C9AE8B",
":X c #C5B8AE",
">X c #C9B6B1",
",X c #D0BBB1",
"<X c #E8D88B",
"1X c #E7D897",
"2X c #F7E88A",
"3X c #F6E997",
"4X c #C8C5A7",
"5X c #D4C7BD",
"6X c #D1CABC",
"7X c #F5EDB4",
"8X c #FCF5BA",
"9X c #F2E8A4",
"0X c #D6CC90",
"qX c #CAC9C9",
"wX c #D6CDC7",
"eX c #D4D1CB",
"rX c gray85",
"tX c #E7D7CC",
"yX c #E5DAD0",
"uX c #E8E0DA",
"iX c #FBF7D6",
"pX c #FDFAD9",
"aX c #F9F4C3",
"sX c #E8E8E7",
"dX c #F4EEE6",
"fX c #FCFBEA",
"gX c #F3F3F3",
"hX c #FDFDF4",
"jX c #FEFEFE",
/* pixels */
"                                                                                                    ",
"                                                                                                    ",
"                                                                                                    ",
"                                                                                                    ",
"                                                                                                    ",
"                                                                                                    ",
"                                          & + o o + + @ &                                           ",
"                                  & + X . . . . . . . . . . X + &                                   ",
"                              + X . . . O r s E ~ ~ ! R y = . . . o *                               ",
"                          o X . . : s  .#X6XsXgXjXjXgXgXsXqX{.s O . . X                             ",
"                        o . . = ^ #X<X'.'.iXjXjXjXjXjXjXjXjXjXsX%X! O . . +                         ",
"                      X . X W $X<X).Q.U.).aXfXhXhXhXhXhXjXjXjXjXjXgX%Xy . . o                       ",
"                    X . ; x.1X(.U.U.U.U.U.!.'.2X2X2X3X7XfXhXiXiXhXjXjXeXE . . +                     ",
"                  X . r .X;XE.U.U.U.U.U.U.T.T.T.T.!.3XaXfXhX7X(.3XpXiXfXsX{ X . +                   ",
"                X . - OX;XN.U.U.U.U.U.U.U.T.R.R.R.Q.(.9XiXfX8X!.Q.].).`.pXsX~ . .                   ",
"              o . = }.oXj.J.Y.U.U.U.U.R.R.R.R.R.R.T.U.Q.).'.!.U.U.U.U.Q.3X8XD.0 = r #               ",
"              . . } +X0.B.U.U.U.U.U.U.F.z.y.k.F.T.R.T.F.H.U.U.U.U.U.U.!.8X<X*.' 4X4X' %             ",
"            X . p &X9.M.P.U.U.U.Y.U.p.e o X o q -.L./.Z.I y.K.T.U.U.U.Q.3Xb.9.9X`.l.S #             ",
"            . O .XoX<.S.Y.U.U.U.U.p., $ @ @ . . X C V.'.#XF U I.R.U.U.Y.B.=._.^.-.% . o             ",
"          X . R :X0.s.P.Y.U.U.Y.K.&.$.%.+...< . . . 9 p.(.0X[ V.R.U.Y.Y.h.C.W.-.+ . . X             ",
"          . . {.oX#.A.U.U.Y.T.R.U.I.U.P.A.>.1 . . . . % U E._.E.H.H.J.K.U.Q.y.% . X X .             ",
"        + . - *Xt.3.J.Y.U.T.T.R.U.U.U.U.Y.m.& . . . . . X Z V.~.N.$.k.u.W.p., . . 0 w . +           ",
"        o . R >X8.s.P.Y.U.R.T.T.U.U.U.U.R.V., O p y . . . . q ;.U w I k *.< O ; . q Y X X           ",
"        X . | -XO.m.U.U.T.T.T.T.U.U.U.U.R.C.9 | sXrXE . . . . o X < v X X . | %XO e k.& .           ",
"        . . }.@XK N.Y.U.U.T.T.T.Y.U.U.U.U.H.D qXjXjX.X. . . . . > N ..> . O *X*X: D Z.q . +         ",
"        . O  X` f a.Y.U.U.U.Y.P.B.h.S.U.T.U.-..XjXgX{ . . . . X X.f.M.J 3 ~ ~ p X n.<XS . o         ",
"        . O }.m 5 u.Y.U.U.U.P.f.7.2.u.N.K.R.F.I { ! O . . . . > d.P.U.l.}.XXO . Z N.=.w . o         ",
"        . O }.m 5 ;.U.U.U.Y.S.3.h @ @ > D z.Q.C.Z X . . . . $ P K.Y.Y.V.c = . j z.P @ . . +         ",
"        . O }.Q 5 X.P.U.U.Y.C.j . . . . . & U G.E.y.C , > 6 X.B.Y.U.U.U.u.A $.k.L * y X .           ",
"        . . [.` 5 J S.R.U.Y.u.o . . . . . 3 # q y.G.L.N.d.f.J.Y.R.R.R.R.U.V.;.q # } }.O .           ",
"        X . { } 5 M s.U.A.S.U . . . . . X } } t + 9 L y.z.C.F.H.F.C.N.y.L q # t b wX X. X           ",
"        o . R w.5 h >.A.f.f.U . . . . . X q.uX:Xa 4 ; + * , 9 q 9 8 & # O u |.%X3  X{ . X           ",
"        + . - }.x f ..6.6.g.$.. . . . . . ( dXeXt _ +X|.n t Q Q a t ]  X/ G yX%XX t - . +           ",
"          . X | Q 5 B ,.4.6.u.+ . . . . . u eX| . Q yXfX^ b ,XdXw.u >XgXE # OX| . . . X             ",
"          X . W w.5 h +.4.5.d.9 . . . . . # | r . 3 >XeX- # OXdXE X |.eXr . R a . . . o             ",
"          + . = {.m 5 V ,.4.g.L . . p E . . O . . X w.w.. . ) *X; . R {.O . . . . . o               ",
"            X . E w.5 g o.4.6.i.& ; OX%XO . . . . . t r . . 3 R . . O r . . X . . o                 ",
"            o . O [.` 5 l @.4.g.L t @X5Xy . y y . . . . . . . . . . . . . r { O . o                 ",
"              X . y }.n 5 B ,.5.i.j G +XW - *Xx.. . ; - . . O ; . . y p . F wXb . o                 ",
"                . . R w.x d V ,.6.i.w n b _ tX*X= . {.{.. . ! XXX . x.%XO ) v.t . +                 ",
"                + . . ! w.x d B @.6.2.e # ] -X5Xy a 6XeXr O OXuXp = =X5Xb n 3 . . +                 ",
"                  X . X ! w.x 5 l o.6.i.D 2 G e.b ] -XtX/ a &XtX} i v.q.u # = . . +                 ",
"                    X . . R w.T 5 g K 1.s.=.j 2 # G r.v.( G c.e.( ; w 2 j i O . X                   ",
"                      X . . t { _ x f h ..<.i.;.L w 2 2 * # 4 4 , e L Y c o . X                     ",
"                        X . . O s ) H x f h N o.2.i.u.;.:.&.:.u.j.j.P < . . X                       ",
"                            X . . O 0 c v v h h z K +.6.7.7.3.%.A < X . . X                         ",
"                              o . . . . # 2 w h M N B B z g 1 $ . . . X                             ",
"                                    . . . . . . . X X . . . . . . X                                 ",
"                                        X X . . . . . . . X X                                       "
};
