/* XPM */
static char *b9736994caac4f318c3fe392902c06fcg5tHhWzIDAbOhKEh[] = {
/* columns rows colors chars-per-pixel */
"50 49 227 2 ",
"   c None",
".  c #010101",
"X  c #0A0603",
"o  c #0D0904",
"O  c #0C0B0B",
"+  c #130C05",
"@  c #130D0A",
"#  c #1A0C06",
"$  c #141007",
"%  c #1A1309",
"&  c #1A140A",
"*  c #141313",
"=  c #1B1513",
"-  c #1B1A1B",
";  c #161718",
":  c #25150A",
">  c #221B0D",
",  c #2C160D",
"<  c #361A0F",
"1  c #221915",
"2  c #251D19",
"3  c #3C1C1B",
"4  c #341B11",
"5  c #220F08",
"6  c #2C2311",
"7  c #2B221A",
"8  c #352A14",
"9  c #392C15",
"0  c #372416",
"q  c #3B3115",
"w  c #3A3219",
"e  c #2E230E",
"r  c #252525",
"t  c #2A2726",
"y  c #2C2B2B",
"u  c #3B2D29",
"i  c #3A2724",
"p  c #3C312A",
"a  c #353535",
"s  c #3C3B3B",
"d  c #3B3634",
"f  c #421E1A",
"g  c #4C241B",
"h  c #462518",
"j  c #5B2D1D",
"k  c #54291B",
"l  c #463818",
"z  c #593E1D",
"x  c #68351E",
"c  c #452827",
"v  c #473727",
"b  c #5A3524",
"n  c #453B37",
"m  c #583D3D",
"M  c #523637",
"N  c #683622",
"B  c #773B23",
"V  c #55441E",
"C  c #4C441B",
"Z  c #5C4B21",
"A  c #554425",
"S  c #49413D",
"D  c #574A35",
"F  c #7A4623",
"G  c #675727",
"H  c #795C2A",
"J  c #785B32",
"K  c #655133",
"L  c #75652A",
"P  c #7D6D2C",
"I  c #766329",
"U  c #796732",
"Y  c #7F712F",
"T  c #444242",
"R  c #4D4C4B",
"E  c #4B4643",
"W  c #594846",
"Q  c #555353",
"!  c #5D5A59",
"~  c #5B524F",
"^  c #6D5449",
"/  c #695654",
"(  c #765F5B",
")  c #61494A",
"_  c #66645B",
"`  c #796259",
"'  c #77725A",
"]  c #666465",
"[  c #6B6968",
"{  c #796B68",
"}  c #7D766E",
"|  c #737172",
" . c #7D7C7C",
".. c #7C7675",
"X. c #8A5929",
"o. c #9B572B",
"O. c #8E4C2D",
"+. c #A3552C",
"@. c #A95B2D",
"#. c #B65E2F",
"$. c #A25630",
"%. c #99682E",
"&. c #8B7233",
"*. c #8D7B35",
"=. c #987532",
"-. c #8B6B2E",
";. c #A66732",
":. c #B76A32",
">. c #A87836",
",. c #B67A39",
"<. c #BB602F",
"1. c #C4642D",
"2. c #C66A2E",
"3. c #C46C32",
"4. c #C86F30",
"5. c #C87835",
"6. c #955942",
"7. c #956B56",
"8. c #A76E44",
"9. c #866D64",
"0. c #897978",
"q. c #8D7569",
"w. c #998637",
"e. c #A88539",
"r. c #B7873B",
"t. c #AB9239",
"y. c #B4963E",
"u. c #B4A03E",
"i. c #C7873B",
"p. c #D28B38",
"a. c #CB963E",
"s. c #D6973D",
"d. c #DEA23F",
"f. c #BC8C40",
"g. c #AA9540",
"h. c #BB9542",
"j. c #AC995C",
"k. c #BBA342",
"l. c #BBA443",
"z. c #878479",
"x. c #9B8379",
"c. c #95907C",
"v. c #AE8671",
"b. c #AB9070",
"n. c #C69845",
"m. c #D19C42",
"M. c #C4AB42",
"N. c #C7A443",
"B. c #D7AD45",
"V. c #CAB448",
"C. c #D9BA47",
"Z. c #E4B446",
"A. c #E9BB48",
"S. c #E1AC46",
"D. c #CAB070",
"F. c #DECA56",
"G. c #E6CC4D",
"H. c #EACD4C",
"J. c #E8C34B",
"K. c #F3CD4B",
"L. c #F0C548",
"P. c #EFD24E",
"I. c #F7D64B",
"U. c #F8D64C",
"Y. c #F7D94D",
"T. c #F9DA4D",
"R. c #F5D953",
"E. c #F5DA5A",
"W. c #F5D855",
"Q. c #E6CF59",
"!. c #F7E059",
"~. c #DAC76A",
"^. c #F4DC65",
"/. c #EDD575",
"(. c #F4E179",
"). c #F6E06B",
"_. c #8C7F80",
"`. c #8D8482",
"'. c #8C8B8B",
"]. c #888484",
"[. c #958D8D",
"{. c #988A85",
"}. c #949392",
"|. c #9C9B9A",
" X c #91908E",
".X c #A48E85",
"XX c #AD9689",
"oX c #ABA59C",
"OX c #BCA39A",
"+X c #AEA886",
"@X c #A5A4A4",
"#X c #BCAEA5",
"$X c #B1A9A5",
"%X c #BAB8B6",
"&X c #B7B3AE",
"*X c #C8A38F",
"=X c #C2ADA6",
"-X c #CAB7AE",
";X c #C3BAB6",
":X c #D2BEB3",
">X c #DACD95",
",X c #DAD094",
"<X c #ECDC8B",
"1X c #F5E382",
"2X c #F7EC98",
"3X c #D9C6BB",
"4X c #C3C1BB",
"5X c #E5DCA4",
"6X c #F8EDA2",
"7X c #F0E8A4",
"8X c #F8EFB3",
"9X c #FBF4BE",
"0X c #E6E1B4",
"qX c #CAC5C1",
"wX c #C9C8C6",
"eX c #D6CAC2",
"rX c #DBDAD8",
"tX c #DCD1C7",
"yX c #E4D8CB",
"uX c #F8F2C2",
"iX c #FCF8D5",
"pX c #ECE7D6",
"aX c #EAEAE9",
"sX c #F2ECE7",
"dX c #FBF9E8",
"fX c #FEFEFE",
"gX c #FAF8F3",
/* pixels */
"                                                                                                    ",
"                                                                                                    ",
"                                                                                                    ",
"                                                                                                    ",
"                                                                                                    ",
"                                                                                                    ",
"                                      > $ + o o X X X o @ %                                         ",
"                                  + X . . . . . . . . . . . . X +                                   ",
"                              + . . . * a !  .'.}.}.'.| R t O . . . o                               ",
"                          + X . . t | %XaXgXfXfXfXfXfXfXpX>X+X_ y X . . X                           ",
"                        o . . r ].rXfXfXfXfXfXfXfXfXfXfXiX).^.(.>Xc.a . . X                         ",
"                      X . X Q wXfXfXfXfXfXfXgXdXdXdXiXiX6XE.I.I.R.(.,X} - . . o                     ",
"                    X . O  .aXfXfXdX8XuXfXdX7X1X).).^.E.R.I.I.I.U.I.E.<XoXa . . o                   ",
"                  X . * }.gXiX8X9X(.^.uXfXgXiX2XE.Y.Y.T.Y.Y.I.I.U.I.I.J.D.#XT . X                   ",
"                X . O z.dX9X^.R.E.Y.R.6XiX8X1XE.Y.T.T.T.Y.Y.I.I.I.U.I.I.B.b.#Xs . X                 ",
"              2 E s 8 D.6X2XE.I.I.Y.I.R.E.R.Y.Y.Y.T.T.R.R.Y.T.U.I.U.U.U.K.n.v.oXr . X               ",
"            @ ' 5X0Xc.J >X9XE.U.I.I.I.T.P.M.V.Y.T.H.u.P G Y l.I.U.I.U.U.U.A.8.XX`.O . +             ",
"            o 6 L Q.2Xb.7./.Y.I.I.I.Y.C.G K ~.!.M.Z $ . . . & P H.U.U.U.U.I.m.7.=XQ . X             ",
"            o . X G F.E.>.a.U.U.I.T.G.G _ ,X^.w.6 . . + 4 < , : *.I.U.I.U.U.A.,.v.$X; . +           ",
"            X . . X G G.H.B.U.Y.Y.Y.V.b.<XF.L $ . . . 4 $.:.i.y.t.H.U.I.U.U.K.a.8.=X! . X           ",
"          + . o o . X L P.T.C.C.B.C.W.^.V.C X . . . . 5 >.A.U.U.Y.Y.Y.Y.U.U.I.Z.;.v.|.O .           ",
"          o . v 6 . . o &.A.%.e.G N.K.t.8 . . . . . . : M.T.U.U.I.I.Y.Y.T.U.U.L.,.7.;Xt . +         ",
"          o o *.q . a - + V 0 K e V G % . . . O Q ] - > V.T.U.U.I.I.Y.T.T.Y.U.K.i.6.-XQ . X         ",
"          . > k.l * qX'.. . . b 4 . . . . . . [ gXfX|.8 C.T.U.U.I.I.Y.T.T.Y.U.I.m.$.OX .. X         ",
"        + . w ~.G O @X%X; . 4 o.O.0 . . . . . |.fXfXwXK G.U.I.K.K.I.Y.Y.Y.I.I.U.N.N q.}.X .         ",
"        o . A /.j.$ ; s  .n J S.B.=.o . . . . R rXaXz.w.T.T.I.Z.s.s.L.U.I.I.I.U.r.f W [.O .         ",
"        + . : F n.H . X | ].h.U.I.B.e . . . . . t n U H.T.C.=.X.X.:.p.L.U.I.I.U.e.3 m [.O .         ",
"        + . . X z l.G + X l C.U.U.K.=.: . . . . & P G.G.*.8 X . X < ;.Z.I.I.I.Y.=.3 m [.O .         ",
"        + . X T = l g.e.-.M.Y.U.U.U.J.>.x h l P M.P.k.C X . . . . . 8 B.U.I.I.K.H 3 W '.X .         ",
"          . X |.{.1 % G k.G.Y.T.T.T.T.I.A.B.J.G.k.G % = u X . . . . X w.I.K.U.Z.N 3 /  .. .         ",
"          X . '.eXn E 1 & l I w.y.k.M.k.g.w.G q $ @ S .X9.o . . . . . I Z.d.K.i.j 3 { ] . X         ",
"          o . Q } = &X#Xn = = @ @ % % % + + = i u n eXsX{ . . . . . . I s.p.d.@.g f `.s . X         ",
"          + . * ; X oXtXn ! ;Xx.p ~ 0.{ v ~ -X:X( - %XsX~ . . . . . . &.p.4.3.O.f v [.; . o         ",
"            X . . . | {.o T sX-X7 ..gX:Xu R dXyXM . _ 4Xt . . . . . $ e.4.1.#.N 3 / | . .           ",
"            + . . . t y . - qX0.. s pX{.O ; 4X#X= . * ! O . O . . . 9 a.2.1.o.g i 0.s . X           ",
"                X . . . . X ..d . O oX~ . . [ { . . . . . . [ R . . I i.1.#.B 3 ) _.O .             ",
"                o . . * X . * X . . y * . . * = . . . . . * &XOX2 6 f.2.1.O.h c `.s . X             ",
"                + . ; '.r . . . . . . . . . . . . . s R . a 3Xx.7 -.5.1.+.k 3 ` | X .               ",
"                + . E eXE . R T . . y ; . . a y . .  XqXy W .Xu Z i.2.#.N 3 W `.- . X               ",
"                + . 1 9./ - ;X}.. O @X] . X |.|.O ; qX3X{ u i z i.4.@.N 3 M _.y . X                 ",
"                + . . = u S :X#X2 T aX$X* y rX3XS d :XXX^ @ Z r.3.+.j 3 M 0.s . .                   ",
"                + . . = = 2 ^ q.p } 3XOXn / 3X*X` p ` i , H i.:.O.g 3 m 0.s . . X                   ",
"                  o . X p A 8 1 @ n ` 9.n E 9.^ u + 6 G ,.5.+.x f c / ..y . . X                     ",
"                    o . . 8 U &.G q 6 > & & 6 9 Z &.r.,.o.N g h m { Q * . . X                       ",
"                      o . . # z >.h.h.r.r.r.r.f.,.%.F j h g b K W r . . X +                         ",
"                          X . . # h F o.:.3.3.+.B N b b b v 0 & . . . X                             ",
"                            + X . . X + , h k j k g 0 , @ . . . . X                                 ",
"                                  X . . . . . . . . . . . . . X                                     ",
"                                        O X . . . . . o O                                           "
};
