/* XPM */
static char *_0f498d50b584f18ee452804b237eda8g3GDJ5TgDusKPk5d[] = {
/* columns rows colors chars-per-pixel */
"50 50 124 2 ",
"   c #010102",
".  c #080004",
"X  c #01020B",
"o  c #000212",
"O  c #000A16",
"+  c #01061C",
"@  c #00091C",
"#  c #000622",
"$  c #000923",
"%  c #000A2A",
"&  c #010F37",
"*  c #040E3D",
"=  c #02113C",
"-  c #010F42",
";  c #000F4B",
":  c #001243",
">  c #00124A",
",  c #001A57",
"<  c #00165B",
"1  c #00195B",
"2  c #011A65",
"3  c #001C6C",
"4  c #001D74",
"5  c #021F7B",
"6  c #002067",
"7  c #00206C",
"8  c #002175",
"9  c #00247D",
"0  c #001F81",
"q  c #002382",
"w  c #00238A",
"e  c #032D9E",
"r  c #082E9B",
"t  c #02319C",
"y  c #022DA4",
"u  c #092CA2",
"i  c #032EAB",
"p  c #0031A1",
"a  c #0830A1",
"s  c #0233AC",
"d  c #0039B7",
"f  c #0D3EB6",
"g  c #0234BD",
"h  c #0338BA",
"j  c #0C3EBC",
"k  c #1039B7",
"l  c #123BB7",
"z  c #1038BC",
"x  c #133EBE",
"c  c #123FBE",
"v  c #0C40B6",
"b  c #0741BF",
"n  c #0B40BC",
"m  c #0034C4",
"M  c #033DC2",
"N  c #053CC3",
"B  c #0F3BC2",
"V  c #083FC0",
"C  c #0C3DC0",
"Z  c #0F3AC5",
"A  c #0C3BC7",
"S  c #0B3DC4",
"D  c #0A3BC2",
"F  c #033EC8",
"G  c #013ECA",
"H  c #033DCD",
"J  c #013FCE",
"K  c #043DCA",
"L  c #0F39C9",
"P  c #0D3CCA",
"I  c #0C3DCA",
"U  c #0C3CC9",
"Y  c #1037C2",
"T  c #103AC0",
"R  c #123AC0",
"E  c #1239C2",
"W  c #123CC2",
"Q  c #1039C7",
"!  c #113CC4",
"~  c #143EC8",
"^  c #0236D7",
"/  c #033ED2",
"(  c #073ED9",
")  c #023CDA",
"_  c #053EE7",
"`  c #0540C0",
"'  c #0542C1",
"]  c #0941CC",
"[  c #1143C8",
"{  c #1045C9",
"}  c #0040D5",
"|  c #0441D7",
" . c #0243DB",
".. c #0043DC",
"X. c #0541DD",
"o. c #0144DD",
"O. c #0541DD",
"+. c #0B49DA",
"@. c #0A48DB",
"#. c #0547E4",
"$. c #0445E5",
"%. c #0846E5",
"&. c #0648E7",
"*. c #0545ED",
"=. c #0240EB",
"-. c #0148EE",
";. c #064AED",
":. c #0446F4",
">. c #0245F4",
",. c #0A41F4",
"<. c #0845F6",
"1. c #054CF2",
"2. c #074CF2",
"3. c #074BF4",
"4. c #0549F1",
"5. c #094CF3",
"6. c #0047F8",
"7. c #0146FD",
"8. c #0048FF",
"9. c #0049FF",
"0. c #004BFF",
"q. c #0248FA",
"w. c #0C48FF",
"e. c #0A4BFF",
/* pixels */
"9.9.1.@.[ x R Y L L S j f f l f j ` ` ` ` ` ` ` ` ` ` ` ` ` ` V B R f f j B Z Q R z l j P ( ,.w.:.3.",
"9.6.o.M s a u u i i p t t t r r t p p p p p p p p p p p p p p y y u t t t y y y u e r e s g ^ _ *.1.",
"-...d e 9 4 3 4 4 4 4 7 3 2 3 3 3 3 3 3 3 3 3 3 3 3 3 3 3 3 3 3 3 3 3 6 3 3 4 4 4 3 2 3 8 w y g X.;.",
"@.M t 8 , : - ; ; > : : = = : - - - - - - - - - - - - - - - - - - : = = = : : : : = = = > < 5 e H #.",
"{ s 9 , & # # $ $ $ @ @ @ + # # + + + + + + + + + + + + + + + + + @ O O O @ $ # @ + O O $ & 1 q g  .",
"x e 3 : $ X X X X X         X X .                                           X X X       X # : 3 s } ",
"W u 3 - $ X   .           . . .                                                 . .     X + * 3 y H ",
"~ y 4 > $ X . . .       . . . .                                   .           . . . .   X + * 2 y G ",
"P i 4 > $ X   .           . X X                                             X X X .     X # - 2 y G ",
"I i 4 > $ X                 . X                                             X X X       X # : 2 y N ",
"S p 8 : $                                                                   X X         X @ = 3 y N ",
"b t 7 : @                                       .                                       X @ = 2 y N ",
"v t 6 = @                         . . . . . . . . . . . . . .                           X @ = 2 y K ",
"v t 6 = @     .                                                                 .       X @ = 2 y G ",
"f t 3 : # X . . X                                                               . . .   X + * 2 y H ",
"f t 3 - # X X . X X                                               .           . . . .   X + * 2 y H ",
"b p 3 - + X             .                                                       .       X + = 2 y K ",
"` p 3 - +             . .                                                               X + = 2 y K ",
"` p 4 - +             . .                                                               X + = 2 y K ",
"` p 4 - +             . .                                                               X + = 2 y K ",
"` p 3 - +             . .                                                     X         X + = 2 y K ",
"` p 3 - +             . .                                                               X + = 2 y K ",
"` p 3 - +             . .                                                               X + = 2 y K ",
"` p 3 - +             . .                                                               X + = 2 y K ",
"` p 3 : +               .                                                               X + = 2 y K ",
"` p 3 : +               .                                                               X + = 2 y K ",
"` p 3 : +             . .                                                               X + = 2 y K ",
"` p 3 - +             . .                                                               X + = 2 y K ",
"` p 3 - +             . .                                                               X + = 2 y K ",
"` p 3 - +             . .                                                               X + = 2 y K ",
"` p 4 - +             . .                                                               X + = 2 y K ",
"` p 4 : +                                                                     X .       X + = 2 y K ",
"S y 4 : #     .   X                                                         X X X       X # - 2 y F ",
"B y 3 : @   . .                                                             X X .       X # * 2 y F ",
"j t 6 = @     .                                                                         X @ = 2 y K ",
"j t 6 = O                                                                               X @ = 2 y K ",
"j t 7 = @                                                                               X @ = 2 y H ",
"B p 8 : @         X                                                           X         X @ = 2 y H ",
"P i 4 > $ X   . X X X                                           X X         X X X       o $ - 3 y K ",
"L y 4 > # X . . X X X         X       X X X             X X X X X X       X X o X       o $ - 3 y K ",
"! a 4 : # X . . X X                                                         X X X . .   o # - 2 p F ",
"W y 3 : +   . . .                                                               . . .   X + * 2 y F ",
"j t 2 = O   . .                                                                 . .     X + = 2 y F ",
"n p 6 = @     .                                                                         X @ = 2 y G ",
"] s 8 > $ X X X o o X X X X X X X X X X X X X X X X X X X X X X X X X X X X o o o X   X O % > 4 i / ",
"X.g w 1 * $ + + # $ # @ @ @ + + + + + + + + + + + + + + + + + + # # @ @ @ + $ $ $ + + @ % * < q g ..",
"<.) y 9 1 : * * - - = = = = = = = = = = = = = = = = = = = = = = - * = = = = - - - * & = : < 5 e H &.",
"e.=.m y q 3 2 2 2 2 2 2 2 2 2 2 2 2 2 2 2 2 2 2 2 2 2 2 2 2 2 2 2 2 2 2 2 2 2 2 2 2 2 2 4 0 e h X.5.",
"7.>.#./ h s y e y y y y e e e e e e y e y e y e y e y e y e y y y y y y y y y y y e e y s h K ( 4.q.",
"9.q.4.#.| K N N D D D D D D N N N N N N N N N N N N N N N N N N D D N N N M N N D j N N H X.%.4.6.9."
};
